<?xml version="1.0" standalone="no"?>
<!DOCTYPE svg PUBLIC "-//W3C//DTD SVG 20010904//EN"
 "http://www.w3.org/TR/2001/REC-SVG-20010904/DTD/svg10.dtd">
<svg version="1.0" xmlns="http://www.w3.org/2000/svg"
 width="400.000000pt" height="400.000000pt" viewBox="0 0 400.000000 400.000000"
 preserveAspectRatio="xMidYMid meet">
<metadata>
Created by potrace 1.14, written by Peter Selinger 2001-2017
</metadata>
<g transform="translate(0.000000,400.000000) scale(0.100000,-0.100000)"
fill="#000000" stroke="none">
<path d="M0 3051 l0 -950 85 -27 c54 -17 82 -31 78 -38 -5 -8 -3 -8 8 0 10 9
24 8 54 -1 25 -8 32 -14 20 -15 -11 -1 13 -12 53 -25 40 -13 89 -33 108 -44
52 -31 286 -125 307 -123 9 0 15 -3 12 -8 -9 -15 35 -34 49 -20 8 8 7 10 -5 5
-10 -4 -20 -2 -24 4 -4 7 3 11 17 11 31 1 56 21 52 43 -1 10 5 17 14 18 10 1
22 2 27 4 6 1 14 3 19 3 6 1 1 8 -10 16 -18 14 -18 15 -1 22 10 3 16 13 13 20
-4 10 3 14 20 14 31 0 66 18 59 30 -3 5 -13 6 -23 3 -16 -6 -16 -6 0 10 9 9
21 17 27 17 11 0 26 39 22 59 -1 8 2 10 10 5 9 -5 10 -2 6 9 -3 9 -2 19 3 22
16 10 12 35 -5 35 -29 0 -14 19 18 22 24 2 31 7 29 21 -2 9 2 17 8 17 5 0 10
7 10 15 0 8 7 15 15 15 8 0 15 5 15 10 0 6 -5 10 -11 10 -5 0 -7 5 -4 10 4 6
11 8 16 5 8 -5 10 -1 9 20 -1 11 25 33 33 28 4 -2 7 1 7 7 0 13 -57 4 -78 -12
-21 -18 -14 30 8 52 25 25 30 25 30 -2 0 -27 12 -16 16 15 1 12 3 24 3 26 1 3
7 -3 14 -13 13 -18 47 -13 47 6 0 7 -5 6 -13 -1 -11 -9 -14 -2 -15 34 0 25 4
45 9 45 5 0 9 -9 9 -21 0 -12 5 -19 12 -16 8 2 13 22 13 54 0 37 3 49 12 46 7
-3 10 -9 7 -15 -4 -6 16 -7 52 -4 107 11 144 18 139 26 -3 5 13 8 35 8 24 0
48 6 59 16 10 9 23 16 29 16 6 0 16 8 22 18 8 11 13 13 16 5 3 -7 11 -10 19
-7 7 3 26 -8 41 -25 15 -17 32 -31 38 -31 12 0 56 -60 56 -77 0 -11 21 -22 45
-24 16 -1 35 -43 23 -50 -5 -4 2 -9 17 -13 18 -5 25 -12 21 -21 -3 -8 -1 -15
4 -15 6 0 18 -13 29 -30 10 -16 21 -27 24 -23 4 3 7 -1 7 -11 0 -10 5 -14 11
-10 6 4 10 -1 8 -12 -4 -30 11 -64 28 -64 12 0 13 -3 3 -14 -6 -8 -19 -12 -28
-9 -15 4 -15 3 -2 -6 13 -10 13 -12 0 -21 -11 -7 -11 -10 -2 -10 9 0 12 -9 9
-29 -3 -15 -1 -35 4 -42 7 -11 9 -10 9 4 0 9 4 17 9 17 4 0 5 -19 1 -42 -6
-33 -5 -45 6 -51 8 -4 14 -19 14 -33 0 -31 18 -66 30 -59 5 3 12 0 16 -6 4 -8
3 -9 -4 -5 -24 15 -11 -10 17 -33 16 -13 27 -30 24 -38 -3 -7 2 -16 11 -19 23
-9 20 -34 -5 -34 -20 0 -21 -1 -5 -22 9 -13 19 -31 23 -40 3 -10 12 -18 21
-18 13 0 13 -2 -2 -13 -17 -13 -18 -14 -2 -20 11 -4 14 -12 9 -19 -15 -25 -12
-46 7 -51 13 -3 18 -10 14 -21 -4 -10 -1 -16 7 -16 8 0 5 -6 -7 -16 -10 -8
-13 -13 -6 -9 6 3 12 1 12 -4 0 -6 -5 -11 -11 -11 -5 0 -7 -5 -3 -12 12 -20
14 -58 2 -58 -6 0 -5 -6 3 -16 10 -12 10 -17 0 -23 -10 -6 -10 -17 -3 -44 6
-20 7 -38 4 -41 -18 -18 -8 -55 24 -85 19 -19 34 -42 34 -52 0 -24 -18 -25
-27 -1 -4 9 -14 23 -22 30 -14 10 -13 11 4 6 17 -5 16 -2 -5 16 l-25 22 -3
-21 c-4 -25 -10 -26 -36 -6 -27 20 -32 13 -31 -44 1 -50 -6 -60 -33 -43 -10 7
-8 14 7 34 l20 25 -26 53 c-19 40 -26 71 -26 117 -1 35 -3 63 -6 63 -4 0 -6
47 -7 103 -1 112 -7 135 -30 116 -12 -9 -13 -5 -10 30 3 27 0 41 -8 41 -14 0
-20 107 -6 115 4 3 2 31 -5 63 -8 31 -13 93 -12 137 1 62 -3 86 -17 107 -10
15 -14 32 -10 39 4 7 2 10 -7 7 -17 -6 -25 -38 -10 -47 12 -8 3 -51 -11 -51
-6 0 -8 9 -5 20 3 11 1 23 -4 26 -5 3 -9 13 -9 23 0 10 -11 40 -25 67 -14 27
-25 55 -25 62 0 7 -4 11 -9 8 -5 -3 -12 2 -15 11 -6 15 -8 15 -17 3 -7 -11 -8
-8 -3 11 6 30 -13 50 -27 28 -5 -8 -9 -9 -9 -3 0 5 -23 15 -50 20 -31 7 -50 7
-50 1 0 -5 -9 -7 -20 -4 -12 3 -35 1 -53 -4 -21 -6 -33 -5 -35 1 -2 5 -24 10
-48 10 -31 0 -43 4 -38 11 16 27 -100 -27 -130 -60 -11 -12 -24 -21 -30 -21
-6 0 -20 -15 -31 -33 -54 -90 -64 -108 -70 -128 -4 -12 -22 -34 -40 -50 -29
-26 -37 -44 -52 -114 -2 -11 -14 -31 -27 -45 -13 -14 -21 -31 -19 -37 3 -7 0
-13 -5 -13 -6 0 -14 -9 -17 -20 -3 -11 -11 -20 -16 -20 -24 0 -72 -72 -63 -95
4 -9 0 -15 -9 -15 -9 0 -19 -5 -23 -12 -5 -8 0 -9 16 -5 l22 6 -23 -25 c-12
-13 -27 -24 -33 -24 -6 0 -17 -9 -24 -21 -7 -11 -19 -18 -27 -15 -25 9 -40
-31 -25 -70 8 -20 4 -27 -22 -46 -18 -12 -26 -24 -19 -26 7 -2 -3 -11 -21 -21
-18 -9 -35 -25 -37 -35 -3 -18 -2 -19 14 -3 9 10 32 17 53 17 34 0 35 -1 17
-14 -47 -31 -115 -65 -115 -56 0 6 -5 10 -12 10 -6 0 -4 -7 5 -18 24 -27 21
-37 -16 -56 -17 -8 -26 -16 -19 -16 6 0 12 -7 12 -16 0 -10 -6 -14 -14 -11 -9
4 -12 0 -9 -13 3 -11 11 -16 19 -13 9 3 14 -2 14 -16 0 -12 -6 -21 -15 -21 -8
0 -15 -5 -15 -12 0 -9 -3 -9 -12 0 -16 16 -31 15 -22 0 5 -10 3 -10 -7 0 -12
11 -12 14 1 22 12 8 11 10 -5 11 -11 0 -14 3 -7 6 6 2 9 9 6 14 -4 6 -11 6
-19 -1 -10 -8 -14 -5 -19 15 -4 14 -10 24 -14 23 -4 -1 -17 1 -29 6 -19 6 -21
11 -13 32 14 36 13 37 -20 30 -36 -7 -37 -1 -5 46 14 20 25 39 25 41 0 3 -11
8 -25 11 -36 9 -31 23 6 18 29 -4 30 -3 20 17 -10 17 -9 22 4 27 8 3 15 11 15
16 0 6 -6 6 -14 -2 -12 -9 -18 -7 -32 9 -21 24 -34 19 -26 -12 5 -20 4 -21
-12 -8 -14 12 -15 16 -2 30 8 9 15 21 16 26 3 18 8 17 15 -4 3 -12 13 -21 21
-21 22 0 17 15 -15 39 l-29 23 16 45 c10 26 25 48 35 51 11 3 16 11 12 22 -9
29 37 16 78 -23 35 -33 53 -63 22 -37 -8 6 -20 8 -26 4 -7 -4 -9 -3 -6 3 4 6
-7 13 -26 16 -17 2 -33 4 -34 3 -2 -2 10 -17 25 -34 29 -32 54 -42 50 -20 -3
15 45 12 50 -3 2 -5 15 -9 28 -9 15 0 23 4 19 10 -4 6 -11 8 -16 5 -15 -10
-40 20 -27 33 8 8 5 14 -13 21 -23 9 -11 16 21 11 10 -1 7 6 -9 24 -14 14 -29
25 -35 24 -6 0 -24 5 -41 12 -16 7 -40 12 -52 11 -13 0 -23 3 -23 7 0 11 -32
12 -46 1 -9 -8 -104 44 -104 57 0 2 13 1 29 -2 27 -6 29 -4 24 15 -3 14 -9 18
-17 13 -28 -22 -176 12 -176 40 0 5 -10 12 -22 17 -13 5 -23 17 -23 27 0 12
-6 18 -17 16 -25 -4 -32 16 -8 23 11 4 18 11 14 16 -3 5 -8 7 -12 5 -4 -2 -16
2 -27 10 -19 14 -18 15 15 10 19 -2 46 -8 60 -12 23 -6 24 -5 9 10 -9 10 -34
20 -57 23 -34 5 -41 2 -47 -16 -3 -11 -11 -21 -16 -21 -5 0 -9 -11 -9 -25 0
-18 7 -28 26 -35 15 -6 22 -14 18 -22 -4 -7 -3 -8 4 -4 7 4 20 2 29 -3 14 -8
15 -11 3 -11 -8 -1 1 -7 20 -14 19 -6 34 -16 33 -21 -1 -6 10 -11 23 -11 14
-1 42 -14 63 -28 20 -14 43 -26 50 -26 7 0 10 -4 7 -8 -3 -5 0 -9 7 -9 32 0
83 -31 84 -52 1 -13 -4 -21 -13 -21 -14 0 -14 -2 0 -15 18 -19 21 -19 42 2 16
16 16 16 9 -7 -19 -63 -53 -70 -99 -19 -24 25 -32 40 -24 45 7 5 3 10 -12 16
-13 5 -26 5 -29 1 -3 -5 -17 -14 -31 -20 -25 -12 -25 -12 9 -12 24 -1 32 -5
28 -15 -3 -8 -1 -17 6 -20 9 -3 8 -7 -3 -15 -17 -12 -14 -16 23 -25 18 -4 27
-2 27 6 0 8 5 6 11 -5 7 -13 15 -15 28 -8 22 12 43 -1 35 -22 -4 -12 -17 -16
-45 -15 -22 1 -42 5 -45 10 -3 5 -20 6 -37 3 -26 -5 -29 -4 -14 5 17 11 16 13
-3 41 -12 16 -18 33 -15 39 9 14 -2 12 -29 -6 -17 -11 -26 -12 -31 -4 -4 6 -4
14 -1 17 8 9 -34 53 -50 53 -8 0 -29 9 -49 20 -46 26 -65 26 -32 0 14 -11 33
-20 42 -20 9 0 14 -4 11 -8 -7 -12 39 -36 52 -28 6 3 14 1 18 -6 4 -7 4 -10
-1 -6 -4 4 -14 0 -22 -8 -12 -12 -18 -12 -32 -2 -13 10 -13 9 1 -8 22 -25 23
-38 3 -30 -8 3 -15 0 -15 -6 0 -9 -3 -9 -11 -1 -6 6 -17 9 -24 7 -6 -3 -12 2
-12 11 0 11 6 15 19 12 11 -3 18 0 18 8 0 9 -9 12 -28 10 -15 -2 -31 -4 -35
-4 -4 -1 -7 -52 -6 -115 1 -109 2 -115 23 -119 21 -4 21 -4 -1 -6 -18 -1 -23
-7 -23 -27 0 -24 1 -24 16 -9 14 13 19 14 25 3 6 -9 1 -16 -16 -22 -21 -8 -25
-16 -25 -51 0 -23 5 -46 10 -51 8 -8 8 -19 0 -38 -16 -42 -13 -69 6 -62 14 5
15 4 5 -8 -6 -8 -14 -37 -18 -65 -5 -42 -3 -51 10 -51 8 0 17 6 19 12 3 7 7 2
10 -10 5 -19 3 -21 -17 -16 -24 6 -24 5 -24 -82 0 -56 4 -91 11 -96 9 -5 9
-13 0 -33 -17 -36 -16 -222 1 -228 9 -4 9 -8 -2 -15 -11 -8 -11 -10 0 -15 11
-4 11 -7 1 -14 -13 -10 -14 -93 0 -93 4 0 8 8 8 17 0 13 3 14 11 6 8 -8 7 -17
-3 -32 -8 -12 -18 -18 -21 -14 -4 3 -7 -12 -7 -34 0 -24 5 -43 13 -46 10 -4
10 -6 0 -6 -10 -1 -13 -46 -13 -191 l0 -190 110 0 c94 0 110 2 110 16 0 10 6
14 14 11 10 -4 12 0 9 14 -4 15 0 19 22 19 21 0 26 -4 21 -16 -4 -12 -2 -15 9
-10 8 3 15 1 15 -4 0 -5 -15 -14 -32 -19 -30 -8 -28 -9 25 -10 56 -1 57 0 46
20 -8 16 -8 20 1 14 7 -4 10 -1 8 10 -2 10 3 20 9 22 7 3 13 0 13 -6 0 -6 7
-11 15 -11 12 0 13 -4 5 -19 -14 -28 -15 -28 38 -27 26 0 39 2 30 4 -10 2 -18
8 -18 13 0 15 30 10 36 -5 5 -13 188 -15 1312 -15 718 -1 1302 2 1299 5 -4 4
1 13 10 19 15 11 15 15 4 29 -9 11 -10 16 -2 16 11 0 13 -5 15 -32 1 -18 27
-37 49 -38 13 0 17 7 15 29 -1 16 -6 27 -10 25 -5 -3 -6 -9 -4 -13 10 -16 -9
-29 -22 -15 -8 9 -9 14 -2 14 6 0 9 4 6 9 -3 5 1 11 9 15 8 3 15 13 14 23 0
10 -3 13 -6 6 -5 -14 -73 47 -73 66 0 6 -6 11 -14 11 -8 0 -16 5 -18 12 -2 6
-13 12 -24 12 -11 1 -25 5 -32 10 -18 11 -15 -29 3 -48 10 -10 12 -17 4 -21
-15 -10 -20 -2 -26 44 -3 23 -8 40 -10 37 -8 -8 -62 15 -60 26 1 6 -4 13 -12
16 -9 3 -11 0 -6 -9 5 -10 5 -11 -3 -4 -6 6 -12 19 -14 29 -1 11 -12 29 -23
40 l-20 21 -19 -20 -18 -20 6 21 c5 16 0 23 -19 32 -14 6 -25 16 -25 22 0 14
-64 80 -78 80 -6 0 -12 5 -14 11 -2 6 -15 12 -28 13 -13 0 -29 10 -35 21 -6
13 -18 19 -33 17 -18 -3 -20 -6 -10 -17 35 -38 39 -47 33 -66 -7 -19 -7 -20
-20 -2 -7 10 -19 18 -27 18 -9 0 -13 16 -12 57 1 50 -2 57 -23 67 -22 10 -24
9 -18 -9 6 -18 3 -20 -20 -14 -25 6 -26 5 -16 -13 15 -28 3 -35 -20 -12 -11
11 -25 17 -31 13 -7 -5 -9 -2 -5 9 4 10 -3 25 -18 39 -14 13 -25 29 -25 36 0
7 -5 10 -11 6 -7 -4 -9 0 -5 14 8 23 -16 52 -44 52 -10 0 -22 9 -25 21 -4 11
-13 18 -20 16 -17 -7 -35 12 -28 32 4 14 3 14 -6 1 -9 -13 -13 -12 -26 8 -9
12 -20 20 -25 17 -5 -3 -11 8 -14 25 -3 16 -9 43 -12 59 -3 17 0 32 6 36 9 5
10 1 5 -15 -5 -15 -4 -20 4 -16 7 5 11 -2 11 -17 0 -26 26 -55 37 -43 4 4 1
11 -6 15 -7 5 -9 11 -4 14 13 8 37 -9 29 -21 -3 -5 1 -15 9 -22 8 -7 15 -9 15
-6 0 4 6 1 14 -6 34 -33 110 -94 130 -103 12 -5 42 -25 68 -42 26 -18 51 -33
56 -33 6 0 12 -7 16 -15 3 -8 10 -15 16 -15 5 0 18 -8 29 -18 56 -52 103 -72
79 -33 -7 11 -16 17 -22 14 -5 -4 -7 1 -3 11 4 10 7 22 7 27 0 5 4 9 9 9 5 0
7 -10 4 -21 -5 -19 -3 -21 21 -17 20 4 24 2 17 -5 -27 -27 3 -32 35 -7 16 14
17 13 11 -10 -4 -14 -7 -32 -7 -40 0 -12 -2 -12 -9 -1 -6 10 -10 10 -16 1 -15
-24 92 -106 315 -240 58 -35 126 -82 151 -105 25 -24 55 -46 67 -49 12 -4 22
-11 22 -15 0 -5 13 -14 29 -21 16 -6 39 -23 52 -36 l23 -24 313 0 314 1 -2
255 c-1 208 -4 256 -15 261 -8 3 -14 9 -14 14 0 4 6 6 14 3 11 -4 13 0 9 15
-6 25 -7 25 -27 5 -15 -14 -16 -14 -16 0 0 9 -5 16 -11 16 -5 0 -7 -5 -3 -12
5 -7 3 -8 -5 -4 -7 5 -10 14 -7 21 2 7 -6 17 -19 23 -20 9 -23 9 -18 -5 5 -13
3 -14 -17 -3 -17 9 -24 9 -30 1 -5 -9 -10 -8 -19 3 -7 8 -10 20 -6 26 7 11 -4
13 -47 10 -21 -1 -30 4 -37 23 -14 37 -26 39 -55 12 -21 -20 -25 -29 -17 -42
9 -16 10 -16 11 5 0 22 10 28 23 15 4 -3 2 -13 -5 -20 -9 -11 -9 -16 1 -23 9
-5 10 -9 2 -14 -15 -10 -4 -26 13 -20 7 3 16 -3 20 -12 9 -22 -2 -33 -15 -14
-8 13 -10 13 -18 0 -6 -9 -6 -19 0 -27 13 -15 3 -33 -19 -33 -13 0 -13 2 4 15
11 8 14 15 7 15 -7 0 -13 10 -13 23 0 16 -3 18 -9 8 -5 -7 -14 -10 -20 -7 -6
4 -11 0 -11 -10 0 -10 -3 -15 -6 -11 -12 12 8 48 32 57 29 11 33 34 4 25 -15
-5 -18 -3 -14 8 7 20 -16 33 -27 16 -5 -8 -6 -21 -3 -31 2 -9 0 -19 -6 -23 -7
-4 -10 -1 -9 6 2 8 -1 25 -5 38 -6 16 -4 26 5 32 11 7 10 9 -3 9 -10 0 -18 -5
-18 -11 0 -6 -7 -4 -15 5 -8 8 -15 22 -15 31 0 9 -4 13 -10 10 -5 -3 -10 -16
-10 -28 0 -18 -2 -19 -10 -7 -8 12 -10 12 -10 1 0 -8 -3 -11 -6 -8 -4 4 -2 13
5 21 8 10 9 21 1 40 -13 35 -13 35 9 29 11 -3 18 -10 15 -17 -3 -8 9 -12 33
-14 21 -1 51 -4 68 -6 16 -2 38 2 49 10 18 12 18 14 3 20 -23 8 -21 24 2 24
11 0 21 6 24 13 2 6 7 -10 11 -36 6 -38 11 -47 23 -43 9 4 21 1 29 -4 7 -6 25
-13 41 -15 15 -2 29 -4 31 -4 1 -1 -2 -11 -9 -22 -9 -17 -8 -20 2 -13 23 14
89 12 89 -3 0 -7 4 -13 9 -13 5 0 17 -3 26 -7 14 -5 16 -2 10 15 -4 14 -2 22
5 22 8 0 11 -11 8 -30 -3 -17 -1 -30 4 -30 5 0 8 81 7 180 -1 161 -7 206 -22
168 -4 -9 -6 -10 -6 -1 -1 6 6 18 14 27 17 16 20 52 6 60 -5 4 -12 -7 -16 -24
-4 -16 -12 -28 -18 -27 -7 1 -11 -4 -9 -12 2 -9 -4 -12 -17 -8 -12 3 -22 -1
-25 -10 -3 -8 -2 -12 3 -8 13 8 42 -6 35 -17 -3 -5 2 -18 12 -29 9 -10 14 -22
11 -26 -4 -3 -7 -1 -7 6 0 9 -8 11 -25 7 -15 -4 -25 -2 -25 4 0 6 -4 9 -9 5
-5 -3 -12 3 -14 12 -4 17 -5 17 -6 1 0 -10 -5 -18 -10 -18 -11 0 -32 -56 -24
-64 4 -3 12 -6 20 -6 10 0 11 5 4 19 -8 13 -6 23 5 37 15 18 15 18 10 0 -5
-13 -2 -17 8 -13 8 3 17 1 20 -6 5 -9 7 -9 12 0 4 9 10 10 24 1 18 -12 18 -12
-1 -26 -18 -12 -23 -12 -38 2 -23 21 -29 20 -27 -1 1 -13 -6 -18 -22 -17 -18
0 -21 -3 -16 -20 4 -12 11 -22 15 -24 5 -2 9 -9 9 -15 0 -17 -17 4 -40 48 -19
37 -19 39 -1 51 10 7 18 24 17 36 -1 13 2 28 6 35 5 6 5 14 -2 18 -5 3 -10 11
-10 16 0 6 5 7 10 4 6 -3 10 -1 10 5 0 20 -31 23 -44 5 -12 -17 -13 -16 -18 9
-4 20 -2 26 8 22 8 -3 14 -1 14 3 0 5 7 12 16 15 8 3 13 2 10 -3 -3 -5 1 -12
10 -15 23 -9 34 -7 34 5 0 6 -7 9 -15 5 -19 -7 -19 1 0 21 8 8 13 19 10 24 -4
5 -1 9 4 9 6 0 11 7 11 15 0 8 5 15 10 15 6 0 10 -5 10 -11 0 -6 7 -3 16 5 8
9 26 19 40 22 l24 6 0 188 c0 178 -8 235 -25 172 l-8 -27 -7 25 -7 25 -11 -25
c-10 -23 -11 -20 -12 25 l-2 50 -12 -40 c-7 -22 -20 -41 -29 -43 -10 -2 -17
-9 -17 -15 -1 -7 -9 7 -20 29 -24 52 -54 62 -85 29 -26 -29 -35 -24 -35 23 0
29 -2 33 -15 22 -12 -10 -15 -9 -15 7 0 27 -9 34 -31 22 -15 -8 -19 -6 -20 8
0 10 -8 0 -18 -22 -12 -26 -19 -35 -23 -25 -10 30 -18 -76 -8 -110 13 -45 -3
-61 -21 -21 -13 30 -29 41 -29 22 0 -6 -11 -22 -25 -37 -14 -15 -25 -34 -26
-43 -1 -25 -29 69 -34 114 -3 28 -1 35 5 25 9 -13 11 -13 19 0 8 12 12 10 20
-10 6 -16 10 -19 10 -8 1 9 9 19 19 21 16 4 16 5 0 6 -29 2 -22 31 7 31 15 0
25 6 25 14 0 8 3 23 7 33 5 14 4 16 -8 7 -8 -5 -24 -9 -36 -8 -14 1 -23 -4
-23 -13 0 -8 -5 -11 -10 -8 -6 4 -20 -4 -31 -17 l-20 -23 6 22 c3 13 2 31 -4
40 -9 17 -10 17 -16 0 -12 -31 -23 -18 -31 40 -9 54 -10 56 -41 57 -33 1 -34
-1 -24 -77 1 -5 5 -5 11 -2 13 8 13 -35 1 -54 -8 -12 -11 -9 -16 11 -5 17 -12
25 -21 21 -11 -4 -14 7 -14 53 0 37 -3 55 -10 48 -14 -14 -15 -66 -2 -91 16
-28 15 -34 -3 -27 -10 4 -18 -2 -24 -17 -8 -21 -10 -22 -16 -7 -11 27 -28 22
-21 -6 3 -14 2 -28 -4 -31 -5 -3 -10 -1 -10 5 0 6 -7 18 -15 26 -8 9 -15 13
-15 10 0 -3 -8 1 -19 10 -10 9 -16 24 -14 34 3 11 -2 19 -16 23 -12 3 -21 2
-21 -2 0 -4 -16 -7 -35 -8 -19 -1 -35 3 -35 9 0 5 -4 7 -8 4 -9 -5 -15 36 -15
118 -1 38 3 61 11 64 7 2 12 21 12 42 0 21 4 42 10 45 6 3 10 11 10 16 0 6 -4
7 -10 4 -5 -3 -10 0 -10 8 0 10 -7 13 -20 10 -22 -6 -26 -23 -9 -40 8 -8 8
-16 0 -30 -9 -16 -11 -16 -12 7 -1 16 -3 19 -6 8 -7 -25 -46 -47 -76 -41 -15
3 -27 9 -27 14 0 13 -21 6 -42 -14 -19 -18 -19 -19 -1 -33 16 -12 16 -15 3
-23 -22 -15 -34 5 -39 62 -1 4 -12 5 -26 1 -15 -4 -25 -2 -25 5 0 6 7 11 15
11 9 0 -1 15 -24 35 -22 20 -43 35 -48 34 -27 -5 -55 4 -72 23 -11 11 -18 24
-16 28 6 10 -45 44 -53 36 -3 -3 -1 -6 5 -6 6 0 13 -9 16 -20 6 -25 -15 -27
-38 -4 -11 12 -13 20 -6 27 15 15 14 47 0 47 -19 0 -38 33 -39 65 -1 26 -3 27
-10 10 -8 -19 -9 -18 -9 4 -1 13 -4 21 -8 18 -11 -11 -33 14 -33 38 0 12 -7
28 -15 35 -8 7 -15 18 -15 24 0 7 -10 23 -22 36 -13 13 -23 29 -24 35 -3 27
-5 29 -14 15 -6 -9 -10 -11 -10 -3 0 7 -6 10 -14 7 -10 -4 -12 2 -9 20 4 19 1
26 -10 26 -9 0 -18 9 -22 19 -4 12 -12 18 -21 14 -12 -4 -13 -1 -4 21 14 39
-6 111 -36 131 -21 14 -23 21 -18 58 l6 42 -20 -24 c-18 -22 -20 -23 -29 -6
-9 15 -13 14 -34 -16 -15 -22 -19 -34 -11 -37 19 -6 14 -22 -8 -22 -11 0 -30
11 -42 25 -20 23 -23 24 -40 8 -10 -9 -18 -11 -18 -6 0 6 7 16 15 23 20 17 19
34 -1 26 -12 -5 -15 -2 -10 10 8 20 -10 44 -34 44 -10 0 -20 9 -23 21 -3 12
-10 18 -16 14 -6 -3 -11 2 -12 12 0 14 -2 13 -10 -5 -11 -29 -29 -20 -29 16
-1 26 -1 26 -15 8 -8 -11 -15 -16 -15 -12 0 5 -7 3 -15 -4 -12 -10 -15 -10
-15 3 0 8 5 17 11 19 15 5 0 38 -17 38 -8 0 -18 8 -21 17 -4 10 -17 27 -28 38
-12 11 -28 37 -34 57 -12 37 -13 37 -37 22 -13 -9 -24 -21 -24 -26 0 -5 -4 -7
-8 -4 -5 3 -6 -9 -4 -26 3 -21 1 -29 -7 -24 -6 4 -11 15 -11 24 0 13 -2 14 -9
3 -6 -9 -11 -10 -15 -2 -4 6 2 23 14 38 l21 28 -22 18 c-15 12 -25 15 -27 7
-3 -7 -9 -4 -18 7 -8 11 -17 14 -21 8 -10 -13 -36 -19 -29 -6 3 5 -1 14 -9 21
-7 6 -12 17 -9 25 3 7 1 16 -5 20 -6 3 -11 15 -11 26 0 10 -4 19 -10 19 -5 0
-10 10 -10 23 -1 21 -1 22 -15 3 -14 -19 -15 -18 -15 15 0 45 -10 80 -21 73
-15 -9 -10 24 6 40 8 8 15 28 15 45 0 16 7 37 16 46 9 9 15 17 13 19 -64 48
-79 57 -73 42 4 -9 1 -16 -6 -16 -6 0 -14 9 -17 20 -6 22 -28 20 -70 -6 -28
-18 -39 -18 -24 0 9 11 6 12 -14 8 -29 -5 -32 5 -8 24 17 13 16 14 -19 18 -7
0 -19 14 -26 29 -18 38 -24 30 -11 -14 6 -19 10 -64 9 -101 0 -37 4 -69 10
-73 5 -3 10 -22 10 -42 0 -19 9 -48 20 -63 11 -15 19 -39 19 -52 -1 -12 2 -31
6 -41 5 -12 3 -17 -5 -15 -7 2 -16 -7 -19 -19 -5 -19 -8 -20 -25 -7 -14 10
-16 14 -5 14 11 1 10 4 -4 14 -10 8 -17 18 -15 22 4 13 -23 57 -30 49 -4 -3
-5 -21 -4 -40 4 -46 -14 -53 -22 -7 -4 29 -2 40 13 52 30 24 42 57 36 98 -10
59 -15 69 -24 53 -10 -16 -34 -5 -28 12 2 7 12 12 22 12 10 0 20 6 23 14 3 9
0 11 -8 6 -8 -5 -11 0 -10 16 1 13 1 42 0 64 -1 36 -2 38 -11 16 -5 -13 -7
-32 -4 -42 4 -11 2 -19 -4 -19 -6 0 -13 -11 -17 -25 -3 -14 -13 -29 -22 -34
-14 -8 -14 -12 -3 -25 7 -9 22 -16 33 -16 16 0 19 -5 16 -25 -3 -13 -1 -26 4
-27 5 -2 5 -13 1 -26 l-9 -24 -19 26 c-23 30 -42 33 -48 9 -3 -10 -5 -1 -4 20
1 45 9 53 30 32 18 -17 27 -19 27 -6 0 5 -13 14 -29 21 -26 10 -29 15 -21 35
5 13 6 26 2 29 -3 4 -11 -8 -16 -26 -15 -45 -32 -33 -28 20 2 26 0 42 -7 42
-6 0 -11 -6 -12 -12 0 -7 -5 -2 -10 11 -5 14 -7 31 -5 38 6 16 -3 43 -15 43
-4 0 -6 -7 -3 -15 4 -8 1 -22 -6 -30 -6 -8 -9 -19 -5 -25 3 -5 1 -10 -6 -10
-11 0 -10 12 5 90 2 8 10 16 19 18 12 2 15 -1 11 -12 -4 -9 0 -18 9 -22 9 -3
13 -12 10 -20 -3 -8 1 -14 11 -14 10 0 13 -6 10 -15 -4 -10 0 -15 10 -15 9 0
20 8 23 17 5 13 10 6 20 -27 7 -25 11 -32 9 -16 -2 17 4 45 15 65 24 44 23 60
-1 89 -28 34 -43 19 -35 -34 4 -27 2 -44 -4 -44 -12 0 -25 63 -18 89 3 14 1
18 -9 14 -8 -3 -14 -14 -14 -24 0 -22 -4 -23 -31 -8 -11 5 -17 14 -15 18 3 4
-19 21 -49 36 -55 28 -69 48 -39 59 13 5 14 9 4 21 -16 19 -31 19 -24 0 7 -18
-12 -20 -23 -2 -8 12 -9 17 -11 50 -1 10 -8 17 -14 16 -21 -2 -58 13 -53 21 3
4 -1 13 -9 19 -10 9 -19 5 -39 -15 -15 -15 -24 -30 -22 -35 3 -4 1 -11 -5 -14
-7 -5 -10 5 -9 27 6 87 1 107 -38 132 -21 13 -49 35 -63 49 -30 30 -112 46
-135 27 -9 -7 -15 -8 -15 -2 0 12 -53 32 -84 32 -12 0 -28 6 -34 13 -7 6 -23
13 -35 14 -12 1 -43 4 -69 7 -28 3 -48 1 -48 -4 0 -19 -25 -10 -35 12 -9 20
-19 23 -92 26 l-83 3 0 -950z m587 650 c12 -17 8 -31 -8 -31 -6 0 -7 5 -4 11
4 6 -2 13 -14 16 -12 3 -21 11 -21 19 0 17 30 7 47 -15z m-270 -3 c-3 -8 -6
-5 -6 6 -1 11 2 17 5 13 3 -3 4 -12 1 -19z m352 -5 c-1 -23 -2 -24 -6 -6 -3
14 -9 20 -19 16 -8 -3 -14 0 -14 6 0 6 9 11 20 11 15 0 20 -6 19 -27z m39 -10
c15 -32 17 -206 2 -183 -7 11 -10 -4 -10 -50 l-1 -65 -14 34 c-8 18 -15 50
-15 70 0 20 -5 42 -12 49 -9 9 -9 12 0 12 7 0 12 8 12 18 0 10 3 22 7 25 4 4
5 32 4 62 -3 60 7 70 27 28z m-98 -33 c0 -5 -10 -10 -22 -10 -19 0 -20 2 -8
10 19 13 30 13 30 0z m0 -145 c0 -50 -4 -85 -10 -85 -5 0 -10 -7 -10 -15 0 -8
5 -15 10 -15 6 0 10 -9 10 -20 0 -20 0 -20 -30 2 -30 22 -44 72 -17 63 24 -9
36 9 28 45 l-7 34 -17 -24 c-16 -23 -17 -23 -17 -4 0 12 9 33 20 47 11 14 17
32 14 41 -4 11 -1 16 10 16 13 0 16 -14 16 -85z m290 -45 c11 -21 4 -25 -19
-11 -7 5 -10 14 -7 20 10 15 14 14 26 -9z m-160 -42 c0 -15 -4 -29 -9 -32 -10
-7 -21 52 -13 72 7 20 22 -6 22 -40z m-95 -33 c-8 -77 -26 -81 -21 -4 5 87 5
86 16 69 5 -8 7 -37 5 -65z m794 -57 c0 -18 -3 -27 -6 -20 -2 6 -13 12 -24 12
-27 0 -24 28 4 33 12 2 23 5 25 6 1 0 2 -14 1 -31z m-892 -30 c-3 -8 -6 -5 -6
6 -1 11 2 17 5 13 3 -3 4 -12 1 -19z m443 -4 c0 -2 -7 -4 -15 -4 -8 0 -15 4
-15 10 0 5 7 7 15 4 8 -4 15 -8 15 -10z m-300 -10 c0 -8 -4 -12 -10 -9 -5 3
-10 10 -10 16 0 5 5 9 10 9 6 0 10 -7 10 -16z m-80 -16 c0 -10 3 -9 9 1 14 21
24 -5 17 -43 -4 -18 -2 -44 2 -57 8 -20 10 -15 10 25 1 27 4 51 6 54 9 8 26
-47 26 -84 0 -19 4 -34 9 -34 5 0 8 -35 7 -77 -4 -88 3 -183 13 -183 4 0 8 44
9 97 2 53 5 99 8 102 16 16 24 -37 23 -139 -2 -106 0 -119 24 -170 15 -30 27
-60 27 -66 0 -6 12 -32 26 -57 30 -54 46 -160 23 -155 -7 2 -15 -7 -17 -18 -2
-16 3 -23 22 -28 28 -7 51 -61 43 -101 -2 -14 -1 -26 3 -27 14 -5 23 -88 10
-88 -7 0 -10 7 -6 16 5 14 4 15 -9 4 -13 -11 -14 -9 -9 17 3 16 0 49 -7 74 -7
24 -11 54 -10 66 2 18 -2 21 -26 19 -27 -3 -28 -5 -27 -54 1 -29 -2 -50 -6
-47 -10 6 -21 66 -23 122 -1 22 -5 39 -10 36 -4 -2 -5 33 -2 79 4 56 2 97 -8
126 -14 46 -31 53 -31 13 -1 -13 -5 -26 -11 -28 -6 -2 -9 18 -7 50 3 39 -1 57
-12 66 -8 7 -13 18 -10 26 3 7 0 16 -6 20 -7 4 -14 -1 -17 -13 -4 -16 -8 -18
-17 -10 -8 8 -11 33 -8 71 4 47 1 62 -11 69 -14 7 -14 12 -1 43 19 47 17 65
-5 38 l-19 -22 -10 41 c-9 35 -8 47 9 80 21 41 18 58 -10 58 -14 0 -17 8 -16
43 1 23 3 45 3 50 3 12 22 8 22 -5z m800 -32 c0 -19 -5 -38 -11 -42 -8 -4 -7
-9 2 -15 12 -7 11 -9 -1 -9 -12 -1 -12 -3 3 -14 15 -12 16 -14 2 -20 -8 -3
-15 -15 -15 -26 0 -13 -4 -18 -11 -15 -6 4 -8 22 -4 46 4 21 4 39 2 39 -19 0
-37 -15 -37 -32 0 -20 -27 -54 -36 -45 -3 3 3 20 13 39 10 19 27 52 38 74 33
64 55 72 55 20z m-481 -70 c1 -5 -5 -3 -13 4 -8 6 -12 19 -9 27 6 14 8 14 14
-3 4 -10 8 -23 8 -28z m521 -22 c0 -22 -16 -17 -17 6 -1 11 2 18 8 15 5 -4 9
-13 9 -21z m-1035 -74 c3 -5 -1 -10 -9 -10 -9 0 -16 5 -16 10 0 6 4 10 9 10 6
0 13 -4 16 -10z m152 -42 c-3 -7 -5 -2 -5 12 0 14 2 19 5 13 2 -7 2 -19 0 -25z
m-240 -25 c-3 -10 -5 -2 -5 17 0 19 2 27 5 18 2 -10 2 -26 0 -35z m1075 -5
c-6 -6 -15 -8 -19 -4 -4 4 -1 11 7 16 19 12 27 3 12 -12z m85 -32 c-3 -7 0
-19 6 -25 6 -6 7 -11 1 -11 -17 0 -33 22 -27 36 3 8 10 14 15 14 6 0 8 -6 5
-14z m-212 -65 c-4 -17 -10 -31 -15 -31 -7 0 -5 23 6 59 8 26 16 2 9 -28z
m115 0 c0 -6 -4 -13 -10 -16 -5 -3 -10 1 -10 9 0 9 5 16 10 16 6 0 10 -4 10
-9z m155 -48 c12 -45 14 -89 4 -104 -6 -9 -9 4 -9 38 0 28 -4 55 -10 58 -12 8
-13 35 -1 35 5 0 12 -12 16 -27z m-25 -27 c0 -8 -4 -17 -9 -20 -10 -7 -23 19
-14 28 11 11 23 6 23 -8z m-260 -16 c0 -11 -4 -20 -9 -20 -5 0 -7 9 -4 20 3
11 7 20 9 20 2 0 4 -9 4 -20z m125 10 c3 -5 1 -10 -4 -10 -6 0 -11 5 -11 10 0
6 2 10 4 10 3 0 8 -4 11 -10z m-785 -10 c0 -5 -4 -10 -10 -10 -5 0 -10 5 -10
10 0 6 5 10 10 10 6 0 10 -4 10 -10z m-6 -36 c4 -10 1 -14 -6 -12 -15 5 -23
28 -10 28 5 0 13 -7 16 -16z m92 -16 c18 -21 18 -21 0 -15 -14 6 -17 4 -12 -9
3 -8 6 -20 6 -25 0 -5 7 -9 16 -9 11 0 14 -6 8 -22 -11 -34 -5 -82 11 -91 20
-11 19 -31 0 -23 -13 5 -14 2 -1 -22 7 -15 16 -44 20 -64 4 -21 11 -38 17 -38
6 0 9 -8 8 -17 -1 -10 1 -25 4 -33 15 -39 24 -88 22 -118 -2 -32 -15 -59 -15
-30 0 11 -7 14 -24 11 -31 -6 -37 18 -52 207 -7 96 -12 145 -14 145 -1 0 -3
18 -4 40 -2 22 -7 61 -11 88 -4 26 -5 47 -3 47 3 0 13 -10 24 -22z m-126 -12
c0 -7 3 -35 6 -62 7 -63 -11 -38 -21 29 -5 32 -4 47 4 47 6 0 11 -6 11 -14z
m52 -56 c-3 -33 -1 -50 7 -50 6 0 11 -4 11 -10 0 -18 -19 -11 -34 13 -7 12
-17 39 -20 60 -6 34 -5 37 17 37 23 0 24 -3 19 -50z m1348 -40 c0 -5 -4 -10
-9 -10 -6 0 -13 5 -16 10 -3 6 1 10 9 10 9 0 16 -4 16 -10z m-1395 -88 c-6
-15 -8 -15 -22 3 -14 19 -15 18 -9 -17 7 -40 -8 -54 -17 -17 -7 26 7 65 25 71
17 6 31 -19 23 -40z m-212 -98 c15 -20 27 -45 27 -55 0 -10 5 -21 12 -25 7 -5
5 -11 -7 -21 -28 -20 -31 -17 -58 40 -32 68 -39 90 -27 82 6 -3 10 0 10 8 0
19 -27 30 -34 14 -2 -7 -5 -3 -5 9 -1 11 2 24 6 28 8 7 23 -9 76 -80z m1634
70 c-3 -3 -12 -4 -19 -1 -8 3 -5 6 6 6 11 1 17 -2 13 -5z m253 -19 c0 -8 -2
-15 -4 -15 -2 0 -6 7 -10 15 -3 8 -1 15 4 15 6 0 10 -7 10 -15z m-1584 -122
c-8 -8 -36 10 -36 25 0 13 3 12 20 -3 11 -10 18 -20 16 -22z m194 -18 c0 -8
-4 -15 -10 -15 -5 0 -10 7 -10 15 0 8 5 15 10 15 6 0 10 -7 10 -15z m170 -106
c0 -5 -4 -9 -10 -9 -5 0 -10 7 -10 16 0 8 5 12 10 9 6 -3 10 -10 10 -16z
m1057 -31 c-3 -8 -6 -5 -6 6 -1 11 2 17 5 13 3 -3 4 -12 1 -19z m153 -12 c0
-8 -4 -18 -10 -21 -5 -3 -10 3 -10 14 0 12 5 21 10 21 6 0 10 -6 10 -14z
m-1490 -61 c7 -22 17 -46 23 -53 7 -9 7 -16 -1 -24 -14 -14 -22 -7 -26 23 -2
13 -6 31 -9 39 -3 8 -8 29 -12 45 -9 42 9 20 25 -30z m1287 23 c-3 -8 -6 -5
-6 6 -1 11 2 17 5 13 3 -3 4 -12 1 -19z m-1407 8 c0 -3 -4 -8 -10 -11 -5 -3
-10 -1 -10 4 0 6 5 11 10 11 6 0 10 -2 10 -4z m1610 -33 c0 -22 -2 -25 -10
-13 -13 20 -13 40 0 40 6 0 10 -12 10 -27z m-198 -28 c5 -23 0 -29 -19 -22 -5
1 -8 9 -9 17 -1 37 22 41 28 5z m-1192 -7 c0 -16 -3 -19 -11 -11 -6 6 -8 16
-5 22 11 17 16 13 16 -11z m1480 -22 c0 -2 -7 -17 -15 -32 -8 -16 -15 -37 -15
-47 0 -10 -4 -16 -9 -13 -5 4 -12 0 -14 -6 -3 -7 -6 -3 -6 10 -1 13 3 20 9 17
6 -3 10 3 10 15 0 26 17 60 30 60 6 0 10 -2 10 -4z m-90 -82 c0 -8 -4 -14 -10
-14 -5 0 -10 9 -10 21 0 11 5 17 10 14 6 -3 10 -13 10 -21z m210 16 c0 -5 -2
-10 -4 -10 -3 0 -8 5 -11 10 -3 6 -1 10 4 10 6 0 11 -4 11 -10z m-316 -16 c3
-8 2 -12 -4 -9 -6 3 -10 10 -10 16 0 14 7 11 14 -7z m216 -74 c0 -53 3 -70 14
-70 9 0 15 21 20 70 10 95 34 93 27 -2 -1 -18 4 -30 18 -38 16 -8 21 -8 21 2
0 8 4 7 10 -4 6 -9 10 -56 10 -105 0 -126 0 -123 -16 -116 -8 3 -14 -1 -14
-11 0 -9 -4 -16 -10 -16 -5 0 -10 11 -10 25 0 15 6 25 15 25 8 0 17 14 20 33
5 25 1 42 -17 70 -13 20 -26 36 -30 37 -5 0 -8 -24 -8 -54 0 -46 -3 -54 -21
-59 -18 -5 -20 -2 -15 19 10 38 -23 134 -46 134 -10 0 -19 6 -19 13 -5 45 -4
69 3 73 4 3 8 14 8 25 0 12 7 19 20 19 18 0 20 -7 20 -70z m104 54 c19 -7 21
-54 3 -54 -21 0 -28 12 -15 27 9 11 9 17 -3 24 -16 10 -8 12 15 3z m-277 -46
c-3 -7 -5 -2 -5 12 0 14 2 19 5 13 2 -7 2 -19 0 -25z m20 -30 c-3 -7 -5 -2 -5
12 0 14 2 19 5 13 2 -7 2 -19 0 -25z m384 -16 c-7 -2 -18 1 -23 6 -8 8 -4 9
13 5 13 -4 18 -8 10 -11z m-416 -62 c3 -5 1 -10 -4 -10 -6 0 -11 5 -11 10 0 6
2 10 4 10 3 0 8 -4 11 -10z m42 -57 c-3 -10 -5 -2 -5 17 0 19 2 27 5 18 2 -10
2 -26 0 -35z m370 5 c-3 -8 -6 -5 -6 6 -1 11 2 17 5 13 3 -3 4 -12 1 -19z
m-37 -24 c0 -8 5 -14 10 -14 6 0 10 -5 10 -11 0 -7 7 -17 17 -24 10 -8 12 -14
5 -19 -6 -3 -18 1 -26 10 -9 8 -16 12 -17 7 -1 -12 -17 39 -18 60 -1 10 4 15
9 12 6 -3 10 -13 10 -21z m360 -4 c0 -5 -5 -10 -11 -10 -5 0 -7 5 -4 10 3 6 8
10 11 10 2 0 4 -4 4 -10z m-244 -11 c3 -6 1 -16 -5 -22 -9 -9 -14 -8 -21 3 -9
15 -4 30 10 30 5 0 12 -5 16 -11z m-2082 -30 c-3 -5 -10 -7 -15 -3 -5 3 -7 10
-3 15 3 5 10 7 15 3 5 -3 7 -10 3 -15z m2016 -61 c0 -16 -3 -19 -11 -11 -6 6
-8 16 -5 22 11 17 16 13 16 -11z m-2365 2 c3 -6 -1 -7 -9 -4 -18 7 -21 14 -7
14 6 0 13 -4 16 -10z m-58 -26 c-3 -3 -12 -4 -19 -1 -8 3 -5 6 6 6 11 1 17 -2
13 -5z m15 -25 c-12 -5 -22 -11 -22 -15 0 -3 6 -4 14 -1 15 6 16 -17 1 -30 -4
-4 -5 -2 -1 5 5 8 0 12 -12 12 -11 0 -25 7 -32 15 -11 13 -10 14 4 9 9 -3 16
-1 16 4 0 12 30 21 44 14 5 -3 0 -9 -12 -13z m605 -31 c-3 -7 -5 -2 -5 12 0
14 2 19 5 13 2 -7 2 -19 0 -25z m-531 -7 c-3 -5 -15 -7 -26 -4 -28 7 -25 13 6
13 14 0 23 -4 20 -9z m20 -31 c-3 -44 -10 -57 -21 -41 -3 6 -1 11 5 11 6 0 8
5 5 11 -7 10 1 59 10 59 2 0 3 -18 1 -40z m34 5 c11 -13 10 -14 -4 -9 -9 3
-16 10 -16 15 0 13 6 11 20 -6z m-177 -50 c9 0 24 -8 34 -18 16 -16 16 -17 -5
-17 -12 0 -22 5 -22 10 0 6 -5 10 -11 10 -19 0 -49 44 -36 52 8 5 14 -1 17
-15 3 -12 14 -22 23 -22z m77 20 c7 -8 9 -15 5 -15 -4 0 -2 -7 5 -15 7 -8 8
-15 3 -15 -5 0 -15 12 -21 26 -7 15 -17 22 -24 18 -7 -4 -8 -3 -4 4 10 16 21
15 36 -3z m2933 -87 c-2 -5 -11 -4 -19 3 -11 9 -18 9 -29 -1 -13 -11 -14 -10
-9 4 3 9 1 22 -5 30 -6 7 -8 16 -5 19 9 8 74 -45 67 -55z m672 52 c3 -5 1 -10
-4 -10 -6 0 -11 5 -11 10 0 6 2 10 4 10 3 0 8 -4 11 -10z m-525 -31 c8 -15 8
-19 -2 -17 -17 4 -38 31 -31 41 6 10 21 0 33 -24z m-3163 -5 c-3 -3 -12 -4
-19 -1 -8 3 -5 6 6 6 11 1 17 -2 13 -5z m73 -15 c0 -6 -4 -7 -10 -4 -5 3 -10
11 -10 16 0 6 5 7 10 4 6 -3 10 -11 10 -16z m3141 -12 c-8 -8 -11 -7 -11 4 0
20 13 34 18 19 3 -7 -1 -17 -7 -23z m-3176 -9 l30 -19 -30 7 c-16 4 -38 7 -47
6 -10 0 -22 7 -28 17 -8 16 -6 17 18 13 15 -3 40 -14 57 -24z m250 22 c8 -13
-5 -13 -25 0 -13 8 -13 10 2 10 9 0 20 -4 23 -10z m2702 -22 c-3 -8 -6 -5 -6
6 -1 11 2 17 5 13 3 -3 4 -12 1 -19z m153 2 c0 -5 -4 -10 -10 -10 -5 0 -10 5
-10 10 0 6 5 10 10 10 6 0 10 -4 10 -10z m690 -20 c0 -11 -4 -20 -9 -20 -5 0
-7 9 -4 20 3 11 7 20 9 20 2 0 4 -9 4 -20z m-110 0 c0 -5 -7 -10 -15 -10 -8 0
-15 5 -15 10 0 6 7 10 15 10 8 0 15 -4 15 -10z m-3634 -8 c-3 -5 12 -18 33
-29 34 -18 39 -19 49 -4 10 14 11 14 11 -2 1 -9 12 -27 25 -38 14 -12 22 -28
19 -35 -8 -20 -23 -17 -23 5 0 10 -7 24 -15 31 -12 10 -15 10 -15 -4 0 -9 5
-16 10 -16 6 0 10 -6 10 -12 0 -7 -15 4 -33 25 -18 20 -37 37 -41 37 -5 0 -4
-6 3 -13 8 -10 7 -17 -2 -27 -10 -10 -8 -12 11 -7 12 3 20 1 17 -3 -3 -5 1
-10 7 -13 20 -8 -34 0 -59 8 -26 8 -28 16 -11 33 8 8 8 12 1 12 -6 0 -13 7
-17 15 -7 18 3 45 16 45 5 0 7 -4 4 -8z m2918 -7 c3 -8 1 -15 -4 -15 -6 0 -10
7 -10 15 0 8 2 15 4 15 2 0 6 -7 10 -15z m792 3 c5 -7 3 -8 -6 -3 -10 6 -12 3
-8 -13 4 -13 0 -23 -8 -26 -17 -7 -19 25 -2 42 15 15 15 15 24 0z m-3826 -13
c0 -8 0 -17 0 -20 0 -3 -3 -6 -7 -7 -3 -2 -7 7 -8 20 -1 12 2 22 7 22 4 0 8
-7 8 -15z m49 -13 c-12 -2 -26 2 -33 8 -8 9 -6 11 12 5 15 -4 22 -2 22 7 0 9
3 9 10 -2 7 -11 4 -16 -11 -18z m234 3 c4 -8 3 -16 -1 -19 -4 -3 -9 4 -9 15
-2 23 3 25 10 4z m-313 -15 c10 -19 10 -20 -9 -8 -11 6 -17 16 -15 20 8 12 12
10 24 -12z m3920 6 c0 -3 -4 -8 -10 -11 -5 -3 -10 -1 -10 4 0 6 5 11 10 11 6
0 10 -2 10 -4z m-3853 -37 c2 -12 -1 -18 -7 -14 -5 3 -10 16 -10 27 0 26 13
16 17 -13z m297 16 c-4 -8 -10 -12 -15 -9 -11 6 -2 24 11 24 5 0 7 -7 4 -15z
m1856 -11 c0 -8 -4 -14 -10 -14 -5 0 -10 9 -10 21 0 11 5 17 10 14 6 -3 10
-13 10 -21z m1398 -15 c4 -40 -13 -30 -24 15 -5 22 -4 28 7 24 8 -2 15 -20 17
-39z m82 22 c0 -18 -18 -21 -30 -6 -10 13 -9 15 9 15 11 0 21 -4 21 -9z m203
-48 c-7 -17 -23 -17 -23 0 0 6 -3 23 -6 37 l-6 25 20 -24 c11 -14 18 -31 15
-38z m-3786 25 c-3 -8 -6 -5 -6 6 -1 11 2 17 5 13 3 -3 4 -12 1 -19z m3691 10
c8 -8 8 -17 1 -30 -6 -10 -7 -28 -4 -38 4 -14 2 -20 -8 -20 -9 0 -14 10 -13
29 1 16 4 27 9 24 10 -6 9 5 -3 28 -12 21 -1 26 18 7z m-3800 -16 c14 4 19 1
18 -11 -1 -12 7 -16 31 -14 27 1 30 -1 20 -12 -7 -8 -16 -10 -23 -4 -6 5 -13
7 -15 5 -3 -3 -16 -7 -31 -10 -28 -5 -58 17 -39 28 6 4 8 14 5 24 -5 13 -4 14
4 3 5 -8 19 -12 30 -9z m360 -14 c7 -7 12 -18 12 -25 0 -18 -35 -16 -50 2 -7
8 -16 12 -21 9 -5 -3 -9 -1 -9 5 0 20 50 27 68 9z m262 -3 c0 -10 -9 -14 -25
-13 -14 1 -25 4 -25 6 0 2 36 18 48 21 1 1 2 -6 2 -14z m28 -9 c-7 -8 -15 -12
-17 -11 -5 6 10 25 20 25 5 0 4 -6 -3 -14z m-531 -18 c9 -19 17 -23 54 -21 24
1 44 2 44 3 0 8 55 8 60 0 4 -7 12 -7 26 0 26 14 24 8 -7 -25 -20 -22 -28 -25
-34 -14 -6 8 -4 16 3 21 15 10 -24 11 -48 2 -13 -5 -14 -9 -4 -15 8 -4 11 -11
7 -14 -3 -3 -13 1 -21 9 -8 9 -17 11 -19 6 -2 -6 -16 -3 -33 7 -19 10 -49 15
-82 14 -35 -1 -53 2 -53 10 0 7 10 9 25 7 15 -3 31 2 42 13 24 24 28 23 40 -3z
m2498 2 c3 -5 2 -10 -4 -10 -5 0 -13 5 -16 10 -3 6 -2 10 4 10 5 0 13 -4 16
-10z m-695 -49 c-1 -13 -3 -13 -15 3 -19 26 -19 42 0 26 8 -7 15 -20 15 -29z
m-1574 -16 c1 -14 -2 -25 -7 -25 -5 0 -9 11 -9 25 0 33 15 33 16 0z m-297 -11
c5 4 12 2 15 -3 4 -5 2 -12 -4 -16 -11 -7 -60 23 -60 38 0 5 9 2 19 -7 11 -10
24 -15 30 -12z m338 11 c0 -8 -4 -15 -9 -15 -10 0 -11 14 -1 23 9 10 10 9 10
-8z m-417 -15 c0 -5 -5 -10 -11 -10 -5 0 -7 5 -4 10 3 6 8 10 11 10 2 0 4 -4
4 -10z m208 -27 c-5 -24 -25 -27 -31 -3 -4 15 0 20 15 20 13 0 18 -6 16 -17z
m59 -7 c-9 -7 -17 -18 -17 -25 0 -17 -17 -13 -24 6 -7 16 11 36 25 27 4 -2 11
1 14 7 4 5 10 7 13 4 4 -4 -1 -12 -11 -19z m71 12 c-4 -12 -38 -21 -38 -9 0
12 12 21 28 21 7 0 12 -5 10 -12z m192 -4 c0 -13 3 -14 15 -4 12 10 15 7 21
-17 4 -15 12 -32 18 -36 6 -5 2 -6 -9 -3 -15 4 -23 -1 -33 -23 -7 -15 -10 -36
-6 -45 4 -11 1 -16 -11 -16 -9 0 -14 4 -11 9 3 5 -3 11 -15 14 -16 4 -19 2
-14 -13 6 -19 -8 -22 -32 -7 -8 5 -13 4 -13 -2 0 -6 -5 -11 -11 -11 -6 0 -9 8
-7 18 2 11 11 16 26 14 29 -4 28 5 -3 30 -14 11 -25 25 -25 31 0 8 4 7 12 -1
15 -15 42 -16 32 0 -5 7 -1 9 12 6 10 -3 25 -7 33 -9 8 -2 17 4 19 14 3 13 -3
17 -25 18 -25 2 -25 2 -5 6 23 4 23 5 6 24 -16 18 -16 19 4 19 14 0 22 -6 22
-16z m-474 -12 c6 -4 16 -16 23 -27 l13 -20 -7 20 c-5 16 -1 15 20 -7 29 -31
37 -33 64 -16 15 9 23 7 47 -15 16 -15 24 -27 17 -27 -6 0 -13 -10 -15 -22 -2
-13 -9 -24 -15 -24 -7 -1 -21 -2 -30 -3 -11 -1 -13 -4 -8 -10 12 -11 65 -3 65
10 0 13 24 11 37 -2 6 -6 9 -18 6 -26 -4 -11 -8 -10 -19 4 -10 14 -15 15 -25
6 -6 -6 -18 -9 -25 -6 -8 3 -14 1 -14 -5 0 -6 -17 -8 -39 -6 -28 2 -46 -2 -64
-16 l-26 -20 -6 21 c-4 11 -4 23 -1 26 3 4 6 -1 6 -11 0 -14 2 -15 13 -4 14
15 20 71 6 62 -8 -5 -10 0 -13 34 -1 7 -15 24 -31 39 -26 22 -27 25 -8 21 15
-4 20 -2 16 8 -3 8 -9 11 -14 8 -5 -3 -9 0 -9 5 0 13 20 14 36 3z m309 -21
c-9 -16 -25 -3 -18 15 4 10 9 12 15 6 6 -6 7 -15 3 -21z m1772 -13 c-3 -7 -5
-2 -5 12 0 14 2 19 5 13 2 -7 2 -19 0 -25z m211 -23 c13 -28 6 -55 -14 -55 -7
0 -20 -10 -28 -21 l-15 -22 2 22 c1 11 5 21 10 21 5 0 6 7 3 15 -3 9 1 18 9
22 10 3 13 12 10 24 -9 28 10 23 23 -6z m-2098 5 c0 -5 -4 -10 -9 -10 -6 0
-13 5 -16 10 -3 6 1 10 9 10 9 0 16 -4 16 -10z m1803 -10 c-3 -12 -8 -19 -11
-16 -5 6 5 36 12 36 2 0 2 -9 -1 -20z m-2018 0 c3 -5 -1 -10 -9 -10 -9 0 -16
5 -16 10 0 6 4 10 9 10 6 0 13 -4 16 -10z m242 -7 c-4 -3 -2 -12 5 -20 6 -7 8
-17 4 -20 -4 -4 -11 -1 -16 7 -7 10 -10 11 -10 3 0 -7 -5 -13 -10 -13 -6 0 -3
11 6 25 9 14 19 25 22 25 3 0 2 -3 -1 -7z m1813 -28 c0 -13 -6 -30 -14 -38 -8
-7 -16 -22 -19 -33 -2 -10 -2 1 0 26 6 60 12 82 24 75 5 -4 9 -17 9 -30z m745
25 c3 -5 1 -10 -4 -10 -6 0 -11 5 -11 10 0 6 2 10 4 10 3 0 8 -4 11 -10z
m-2436 -27 c8 -15 8 -23 1 -23 -5 0 -10 7 -10 16 0 8 -4 12 -10 9 -11 -7 -14
8 -3 18 7 8 7 9 22 -20z m1541 6 c0 -5 -4 -9 -10 -9 -5 0 -10 7 -10 16 0 8 5
12 10 9 6 -3 10 -10 10 -16z m-1886 -24 c-5 -11 -11 -12 -25 -5 -10 6 -16 17
-13 25 5 11 11 12 25 5 10 -6 16 -17 13 -25z m540 10 c-4 -9 -14 -20 -24 -25
-16 -9 -17 -7 -6 15 12 27 39 35 30 10z m1845 -11 c3 -3 0 -9 -5 -14 -7 -7
-17 -3 -30 11 -19 22 -19 22 6 14 14 -4 27 -9 29 -11z m-485 -15 c8 -12 12
-28 9 -35 -4 -10 0 -12 13 -7 12 4 15 3 10 -5 -11 -19 -36 -14 -36 7 0 10 -7
24 -15 31 -8 7 -15 16 -15 21 0 16 19 9 34 -12z m-1604 -23 c0 -3 -7 -6 -16
-6 -8 0 -12 -4 -9 -10 8 -12 -5 -13 -24 -1 -11 7 -10 12 5 28 15 15 22 16 32
7 6 -7 12 -15 12 -18z m2413 12 c6 -19 -11 -48 -28 -48 -8 0 -15 -4 -15 -10 0
-5 -8 -6 -17 -3 -11 4 -12 8 -5 11 7 2 12 10 12 18 0 8 7 14 15 14 8 0 15 7
15 15 0 18 17 20 23 3z m654 -52 c-33 -68 -41 -96 -28 -109 10 -9 15 -8 26 7
8 10 19 15 25 11 7 -4 14 2 17 14 3 12 9 21 14 21 13 0 11 -12 -6 -33 -7 -11
-11 -25 -8 -33 3 -8 0 -14 -5 -14 -6 0 -9 -11 -6 -24 2 -15 -2 -26 -11 -30
-11 -4 -15 0 -13 12 2 11 -3 16 -15 15 -12 0 -16 4 -13 12 3 9 -2 12 -15 10
-12 -3 -19 2 -19 13 0 13 -3 13 -12 4 -10 -10 -10 -15 2 -22 8 -5 18 -6 22 -4
13 8 9 -26 -4 -40 -11 -11 -16 -10 -30 7 -10 11 -18 15 -18 9 0 -7 -10 -12
-22 -12 -19 0 -20 2 -6 18 8 9 13 25 11 34 -4 15 -6 15 -23 1 -10 -9 -17 -21
-16 -27 2 -6 1 -8 -1 -3 -3 4 -13 7 -24 7 -10 0 -19 5 -19 10 0 6 -5 10 -11
10 -7 0 -4 -11 6 -26 9 -15 12 -23 6 -20 -6 4 -11 3 -11 -3 0 -6 -21 -8 -52
-6 -39 3 -48 2 -35 -6 9 -5 17 -19 17 -31 0 -14 5 -18 15 -14 8 3 23 9 33 12
15 5 15 4 -1 -9 -13 -11 -17 -22 -12 -36 5 -15 2 -21 -9 -21 -9 0 -16 -4 -16
-10 0 -5 -5 -10 -10 -10 -6 0 -3 11 5 24 15 23 15 24 -10 30 -14 4 -25 11 -25
16 0 6 -5 10 -10 10 -6 0 -8 -11 -4 -26 5 -17 2 -29 -7 -35 -19 -11 -18 -32 1
-41 12 -5 10 -8 -8 -14 -18 -5 -20 -9 -11 -20 8 -10 8 -14 1 -14 -18 0 -31 33
-21 52 6 12 6 25 -1 38 -8 16 -8 18 4 14 8 -3 17 1 22 8 4 7 4 10 -1 6 -4 -4
-15 -2 -23 5 -12 9 -16 9 -19 -1 -3 -6 -8 -10 -12 -8 -4 3 -7 -4 -7 -15 0 -10
6 -19 13 -19 7 0 13 -7 13 -15 0 -18 -30 -20 -30 -2 -1 19 -30 -25 -30 -45 0
-10 -5 -18 -10 -18 -6 0 -5 -8 2 -20 11 -17 10 -22 -2 -30 -8 -5 -23 -10 -32
-10 -12 0 -18 -8 -19 -22 0 -16 -2 -18 -6 -8 -3 8 -11 18 -17 22 -7 5 -5 8 5
8 9 0 19 10 21 23 3 15 0 24 -9 24 -9 0 -11 -7 -7 -21 7 -21 7 -21 -15 -2 -22
20 -22 20 -16 0 6 -18 6 -18 -8 -2 -15 19 -33 25 -23 9 4 -5 0 -12 -6 -14 -8
-3 -5 -6 5 -6 17 -1 17 -3 3 -16 -8 -9 -14 -21 -12 -28 1 -7 1 -9 -1 -5 -2 3
-17 2 -34 -2 -22 -6 -29 -5 -29 5 0 17 32 29 40 14 6 -8 9 -8 14 0 4 6 2 11
-4 11 -6 0 -9 4 -5 9 3 5 -3 12 -12 14 -16 4 -15 6 4 12 12 4 24 14 27 22 3 8
1 11 -4 8 -6 -3 -10 5 -10 20 0 26 -36 51 -52 36 -14 -13 4 -52 21 -47 9 3 6
-2 -6 -10 -13 -9 -23 -23 -23 -30 0 -8 -4 -14 -9 -14 -17 0 -18 25 -2 50 15
23 15 24 -2 11 -10 -8 -17 -9 -17 -3 0 6 5 14 10 17 8 5 7 12 -2 22 -10 13
-13 13 -18 0 -4 -12 -8 -11 -24 4 -19 19 -19 19 7 19 23 0 27 4 27 28 0 22 -2
24 -11 12 -8 -12 -10 -9 -6 13 6 36 -4 34 -33 -5 -19 -27 -20 -30 -4 -18 15
11 16 11 7 0 -7 -8 -13 -23 -14 -35 0 -14 -2 -15 -6 -5 -3 8 -14 23 -25 34
-10 11 -18 23 -18 28 0 4 -3 7 -7 7 -22 -4 -32 3 -30 21 1 11 5 20 9 20 4 0 5
8 3 18 -3 15 2 18 21 14 14 -2 24 0 24 7 0 6 9 11 19 11 11 0 21 5 23 11 4 13
78 22 78 9 0 -4 2 -15 5 -23 6 -14 -4 -17 -52 -18 -13 -1 -23 -5 -23 -10 0 -9
30 -13 59 -9 8 1 12 -4 8 -13 -3 -8 0 -20 6 -26 8 -8 8 -14 -1 -23 -7 -7 -12
-21 -12 -32 0 -16 3 -17 12 -8 7 7 21 12 32 12 17 0 18 2 6 9 -8 6 -18 7 -22
5 -4 -3 -8 0 -8 5 0 6 5 11 10 11 6 0 10 7 10 15 0 16 9 19 34 9 8 -3 12 -12
10 -19 -3 -8 4 -22 15 -32 12 -9 21 -23 21 -29 0 -19 -33 -9 -41 12 -5 13 -8
14 -8 4 -1 -22 15 -44 27 -36 6 3 13 2 17 -4 4 -6 11 -8 16 -5 5 4 9 0 9 -8 0
-8 7 -17 15 -21 8 -3 14 -2 14 2 -1 4 -1 23 1 42 1 29 3 32 10 15 8 -18 9 -18
9 -2 1 10 10 27 21 39 11 12 20 29 20 39 0 20 25 43 39 35 5 -4 12 -2 15 2 3
5 -6 15 -19 22 -13 7 -22 17 -19 22 3 4 13 4 23 -1 10 -6 29 -8 42 -5 20 4 21
3 5 -4 -19 -8 -19 -9 3 -15 17 -4 24 0 32 20 7 20 6 29 -3 35 -10 6 -10 8 0 8
6 0 12 10 12 22 0 12 3 18 6 15 4 -4 21 5 38 20 l31 26 3 -25 c4 -30 47 -75
57 -59 3 6 -1 11 -10 11 -9 0 -15 6 -12 13 2 6 12 12 21 12 10 0 22 8 27 18 7
11 7 17 -1 17 -5 0 -10 9 -10 20 0 22 7 25 29 11 8 -5 11 -16 8 -26 -4 -9 -2
-22 5 -28 18 -20 75 11 83 46 10 43 38 93 43 77 3 -7 -2 -27 -11 -44z m-3382
16 c-2 -9 -4 -23 -4 -29 -1 -7 -5 -13 -9 -13 -5 0 -8 10 -6 23 1 12 3 28 3 35
1 7 5 11 10 8 5 -4 8 -14 6 -24z m384 11 c9 -16 10 -16 11 -1 0 10 7 15 18 14
9 -2 16 -6 15 -9 -2 -4 -3 -14 -3 -23 0 -10 -5 -12 -12 -7 -15 9 -35 14 -60
16 -10 1 -18 7 -18 14 0 19 37 16 49 -4z m3321 3 c0 -8 -7 -22 -16 -31 -15
-15 -15 -17 5 -22 14 -4 20 -11 17 -20 -3 -8 -6 -19 -6 -24 0 -5 -5 -9 -11 -9
-5 0 -7 5 -4 10 3 6 0 17 -8 25 -20 20 -37 0 -41 -49 -2 -20 -7 -40 -11 -44
-12 -11 3 94 17 120 30 53 58 74 58 44z m-280 -21 c-14 -17 -30 -20 -30 -5 0
6 7 10 15 10 8 0 15 5 15 12 0 6 3 8 6 5 4 -4 1 -13 -6 -22z m-3462 -10 c1
-14 -3 -25 -8 -25 -8 0 -8 23 -1 48 3 9 7 -2 9 -23z m522 4 c0 -20 -21 -30
-39 -20 -17 11 -4 37 19 37 12 0 20 -7 20 -17z m1690 -10 c0 -27 -2 -30 -15
-19 -13 11 -14 10 -9 -4 4 -11 1 -16 -11 -16 -12 0 -15 5 -10 20 4 12 2 20 -5
20 -6 0 -8 5 -5 10 4 6 11 8 16 5 5 -4 9 -1 9 4 0 6 7 11 15 11 10 0 15 -10
15 -31z m1025 21 c3 -5 2 -10 -4 -10 -5 0 -13 5 -16 10 -3 6 -2 10 4 10 5 0
13 -4 16 -10z m354 -11 c-10 -6 -11 -9 -1 -9 6 0 12 -5 12 -12 0 -6 -3 -8 -7
-5 -3 4 -12 -1 -19 -11 -16 -20 -18 -4 -4 33 6 15 15 23 21 19 8 -4 7 -9 -2
-15z m-1309 1 c0 -5 -7 -10 -15 -10 -8 0 -15 -6 -16 -12 0 -10 -2 -10 -6 0 -2
6 -9 10 -14 6 -5 -3 -9 0 -9 6 0 7 6 10 13 7 8 -3 20 -1 28 4 18 11 19 11 19
-1z m210 0 c0 -5 -4 -10 -10 -10 -5 0 -10 5 -10 10 0 6 5 10 10 10 6 0 10 -4
10 -10z m470 6 c0 -3 -4 -8 -10 -11 -5 -3 -10 -1 -10 4 0 6 5 11 10 11 6 0 10
-2 10 -4z m-2734 -21 c9 -8 11 -15 6 -15 -5 0 -15 7 -22 15 -7 8 -9 15 -6 15
4 0 14 -7 22 -15z m158 -1 c9 -23 -3 -33 -15 -12 -6 10 -16 15 -27 12 -14 -5
-15 -4 -2 5 21 15 37 13 44 -5z m31 -30 c-19 -19 -20 -18 -21 16 -1 29 0 30
17 14 15 -14 16 -18 4 -30z m179 -22 c-4 -4 -9 -1 -11 6 -3 6 -9 10 -14 6 -15
-9 -10 8 9 29 17 19 17 19 20 -8 2 -15 0 -30 -4 -33z m436 33 c0 -27 -20 -41
-44 -32 -9 3 -12 15 -9 31 4 19 11 26 29 26 19 0 24 -5 24 -25z m298 -8 c3
-22 -1 -27 -17 -27 -17 0 -21 6 -21 31 0 24 4 30 18 27 10 -2 18 -14 20 -31z
m1121 16 c-12 -15 -12 -16 4 -10 9 3 17 2 17 -3 0 -6 -13 -10 -30 -10 -34 0
-38 7 -12 26 24 19 37 17 21 -3z m-164 -13 c-10 -11 -21 -17 -24 -14 -3 4 0 9
7 11 6 3 10 9 6 14 -3 5 3 9 12 9 16 0 16 -2 -1 -20z m-2229 1 c-4 -5 -1 -12
4 -14 6 -3 5 -4 -2 -3 -15 3 -23 26 -8 26 6 0 9 -4 6 -9z m110 -8 c18 -24 17
-33 -2 -33 -8 0 -12 5 -9 10 3 6 1 10 -4 10 -6 0 -11 7 -11 15 0 20 10 19 26
-2z m761 -15 c-3 -7 -5 -2 -5 12 0 14 2 19 5 13 2 -7 2 -19 0 -25z m1439 5
c-3 -8 -2 -11 3 -8 12 7 24 -12 16 -25 -4 -7 -13 -7 -26 0 -13 8 -19 7 -19 0
0 -6 -4 -9 -9 -5 -5 3 -12 1 -16 -5 -9 -15 -48 -13 -43 2 3 7 11 13 19 14 35
2 38 5 32 21 -4 11 -3 14 5 9 7 -4 15 -1 18 8 3 9 10 13 16 10 5 -3 7 -13 4
-21z m184 -30 c0 -2 -4 -2 -9 2 -25 15 -37 -49 -16 -82 18 -27 14 -30 -9 -7
-14 14 -17 13 -28 -11 -12 -27 -68 -64 -68 -45 0 5 7 10 16 10 10 0 14 6 11
14 -3 8 1 13 11 12 9 0 18 8 20 19 2 11 8 22 13 25 5 3 0 13 -11 23 -19 16
-20 15 -31 -5 -7 -12 -13 -31 -14 -43 -1 -11 -3 -24 -4 -30 -1 -5 -5 -3 -11 5
-11 18 -21 10 -23 -19 -2 -25 -1 -25 -32 -5 -14 9 -22 20 -19 26 3 5 14 2 25
-8 10 -9 19 -12 19 -6 0 6 2 17 5 24 4 9 -2 14 -17 15 -12 1 -28 9 -34 18 -15
20 -26 19 -22 -2 2 -13 -5 -18 -30 -20 -26 -2 -34 2 -41 20 -5 12 -6 26 -3 32
3 5 7 4 10 -3 6 -19 46 -14 72 8 22 19 46 19 35 -1 -3 -5 1 -6 9 -3 9 3 16 12
16 20 0 19 29 18 36 -1 6 -16 24 -11 24 6 0 6 -5 7 -12 3 -7 -4 -8 -3 -4 4 10
16 46 15 47 0 0 -10 2 -10 6 0 2 6 11 12 19 12 9 0 14 10 14 28 l0 27 15 -29
c8 -15 15 -30 15 -33z m900 47 c0 -5 -5 -10 -11 -10 -5 0 -7 5 -4 10 3 6 8 10
11 10 2 0 4 -4 4 -10z m30 0 c0 -5 -2 -10 -4 -10 -3 0 -8 5 -11 10 -3 6 -1 10
4 10 6 0 11 -4 11 -10z m-3457 -23 c4 3 7 4 7 1 0 -3 -6 -11 -14 -17 -11 -9
-17 -6 -30 14 l-17 26 24 -15 c13 -9 27 -13 30 -9z m190 -3 c-10 -7 -15 -14
-10 -15 4 -1 10 -2 15 -3 4 -1 13 -5 21 -10 11 -7 13 -4 7 17 -3 14 -2 29 4
32 5 3 10 1 10 -4 0 -15 27 -14 34 2 3 9 8 7 15 -5 7 -10 19 -14 33 -10 14 3
19 2 14 -6 -4 -7 -14 -12 -23 -12 -13 0 -13 -3 -3 -15 15 -17 7 -19 -21 -5
-13 8 -19 7 -19 0 0 -6 14 -16 30 -21 17 -6 30 -17 30 -25 0 -8 6 -11 15 -8
10 4 15 0 15 -15 0 -12 5 -21 10 -21 16 0 11 32 -7 46 -17 12 -16 13 4 14 12
0 25 5 28 10 3 6 1 10 -4 10 -6 0 -11 5 -11 11 0 8 5 8 15 -1 16 -14 21 -55 5
-45 -5 3 -10 -4 -10 -15 0 -12 -9 -33 -20 -47 -18 -23 -20 -23 -21 -7 -1 11
-1 23 0 28 1 5 -5 3 -14 -4 -19 -15 -73 -21 -81 -9 -3 5 -1 9 4 9 6 0 8 9 5
20 -3 11 0 20 6 20 5 0 8 -7 5 -15 -8 -20 10 -19 27 1 10 13 10 17 -2 25 -8 5
-24 9 -36 9 -17 0 -21 4 -16 17 5 13 3 15 -13 8 -26 -11 -114 -13 -114 -3 0 4
3 7 8 7 25 -4 42 3 42 19 0 22 20 43 32 36 5 -3 1 -12 -9 -20z m302 -15 c8
-31 -7 -45 -25 -25 -8 11 -8 20 -1 34 6 11 9 22 7 24 -1 3 1 3 5 -1 4 -3 11
-18 14 -32z m243 14 c-4 -39 -28 -42 -28 -4 0 21 5 31 16 31 11 0 14 -8 12
-27z m2235 4 c4 3 7 1 7 -6 0 -8 -6 -11 -16 -7 -9 3 -18 6 -20 6 -2 0 -4 8 -4
18 1 16 1 16 14 0 7 -10 16 -15 19 -11z m957 -4 c0 -12 -2 -12 -15 1 -8 8 -15
17 -15 20 0 3 7 3 15 0 8 -4 15 -13 15 -21z m-3477 10 c-7 -2 -19 -2 -25 0 -7
3 -2 5 12 5 14 0 19 -2 13 -5z m1412 -33 c-3 -6 -13 -10 -21 -10 -17 0 -19 37
-1 43 14 5 31 -19 22 -33z m969 25 c11 -8 15 -15 9 -15 -19 0 -43 12 -43 21 0
13 12 11 34 -6z m89 9 c10 -11 -17 -31 -35 -26 -18 4 -18 5 -1 18 20 15 27 17
36 8z m612 -14 c17 14 17 14 0 -57 -9 -42 -25 -43 -25 -2 0 17 -5 40 -12 52
-10 20 -10 21 5 8 14 -11 20 -11 32 -1z m-920 -18 c-3 -3 -11 0 -18 7 -9 10
-8 11 6 5 10 -3 15 -9 12 -12z m165 10 c0 -4 -9 -13 -20 -20 -22 -13 -23 -12
-14 12 6 16 34 23 34 8z m832 -27 c-2 -19 -8 -33 -12 -30 -5 3 -6 14 -3 25 4
15 0 20 -13 21 -14 1 -13 3 6 9 14 4 25 8 25 9 1 1 -1 -15 -3 -34z m-1055 3
c-3 -8 -6 -5 -6 6 -1 11 2 17 5 13 3 -3 4 -12 1 -19z m523 7 c0 -8 -2 -15 -4
-15 -2 0 -6 7 -10 15 -3 8 -1 15 4 15 6 0 10 -7 10 -15z m-2087 -22 c-7 -2
-19 -2 -25 0 -7 3 -2 5 12 5 14 0 19 -2 13 -5z m1914 -22 c-3 -17 -8 -34 -11
-40 -4 -5 1 -14 10 -19 20 -11 9 -34 -14 -30 -11 2 -17 14 -18 35 -1 20 2 30
8 27 6 -4 7 2 3 16 -5 15 -2 25 6 31 20 13 21 12 16 -20z m81 10 c3 -8 -1 -12
-9 -9 -8 3 -19 -2 -26 -11 -11 -14 -12 -14 -13 5 0 11 3 24 7 28 11 10 36 3
41 -13z m-437 -14 c-10 -9 -11 -8 -5 6 3 10 9 15 12 12 3 -3 0 -11 -7 -18z
m285 -3 c-3 -9 -6 -20 -6 -25 0 -6 -4 -8 -9 -4 -5 3 -12 1 -16 -5 -8 -13 -25
-13 -25 0 0 14 37 50 51 50 6 0 8 -7 5 -16z m-2668 -14 c15 0 15 -2 2 -10 -15
-9 -30 4 -29 25 0 6 3 4 6 -2 2 -7 12 -13 21 -13z m1919 -22 c-3 -7 -5 -2 -5
12 0 14 2 19 5 13 2 -7 2 -19 0 -25z m1395 -15 c11 -14 0 -17 -18 -5 -17 11
-24 40 -11 45 7 2 14 -3 16 -12 2 -9 8 -22 13 -28z m158 35 c0 -4 -4 -8 -9 -8
-6 0 -12 4 -15 8 -3 5 1 9 9 9 8 0 15 -4 15 -9z m100 8 c0 -3 -4 -8 -10 -11
-5 -3 -10 -1 -10 4 0 6 5 11 10 11 6 0 10 -2 10 -4z m-3304 -22 c-4 -12 -2
-15 9 -10 17 6 21 -9 4 -20 -6 -3 -18 1 -27 10 -11 11 -12 16 -4 16 7 0 10 5
7 10 -3 6 -1 10 5 10 7 0 9 -7 6 -16z m3342 -59 c-12 -13 -28 13 -21 32 4 10
0 14 -13 13 -35 -4 -39 0 -14 13 23 12 26 10 40 -18 9 -17 13 -34 8 -40z
m-3555 40 c-8 -22 -22 -18 -16 5 3 11 9 17 14 15 4 -3 6 -12 2 -20z m-43 0 c0
-8 -4 -15 -10 -15 -5 0 -7 7 -4 15 4 8 8 15 10 15 2 0 4 -7 4 -15z m2370 0
c11 -13 10 -14 -4 -9 -9 3 -16 10 -16 15 0 13 6 11 20 -6z m315 -4 c-3 -11 -1
-22 5 -26 12 -7 14 -25 2 -25 -13 0 -32 39 -26 55 9 22 26 19 19 -4z m739 -4
c-15 -26 -27 -37 -35 -31 -5 3 -2 16 7 29 16 24 41 25 28 2z m-1486 1 c-2 -3
4 -14 13 -24 13 -16 14 -23 3 -44 -14 -26 -18 -21 -15 17 1 11 -3 24 -8 28
-14 8 -14 38 0 33 6 -2 9 -6 7 -10z m387 -11 c0 -26 -20 -25 -23 2 -3 16 1 22
10 19 7 -3 13 -12 13 -21z m455 8 c0 -8 -4 -15 -10 -15 -5 0 -7 7 -4 15 4 8 8
15 10 15 2 0 4 -7 4 -15z m585 5 c-3 -5 -11 -10 -16 -10 -6 0 -7 5 -4 10 3 6
11 10 16 10 6 0 7 -4 4 -10z m-1559 -27 c-10 -10 -19 5 -10 18 6 11 8 11 12 0
2 -7 1 -15 -2 -18z m1224 17 c0 -5 -5 -10 -11 -10 -5 0 -7 5 -4 10 3 6 8 10
11 10 2 0 4 -4 4 -10z m174 1 c3 -5 14 -7 25 -4 11 3 21 -2 25 -12 4 -11 2
-15 -6 -12 -7 2 -21 0 -32 -5 -12 -6 -22 -6 -28 0 -6 6 -17 8 -26 4 -11 -4
-10 0 4 15 21 24 30 27 38 14z m-564 -10 c0 -18 -18 -21 -30 -6 -10 13 -9 15
9 15 11 0 21 -4 21 -9z m918 -12 c10 -16 10 -19 1 -13 -9 5 -10 2 -6 -9 3 -10
2 -17 -4 -17 -6 0 -13 9 -16 20 -3 11 -10 20 -17 20 -6 0 -4 5 4 10 21 13 23
13 38 -11z m-1272 -15 c2 -23 1 -24 -11 -7 -7 10 -11 21 -9 25 10 16 19 7 20
-18z m-2264 0 c14 14 19 14 30 2 8 -8 23 -16 34 -18 10 -2 18 -10 16 -17 -1
-6 4 -19 13 -27 8 -9 15 -21 15 -27 0 -7 -4 -6 -10 3 -5 8 -12 11 -16 8 -3 -4
-14 0 -23 9 -15 15 -16 15 -19 0 -2 -9 -8 -17 -13 -17 -5 0 -7 11 -3 24 9 36
-5 52 -23 27 -14 -20 -40 -20 -28 0 3 5 -1 6 -9 3 -12 -4 -16 0 -16 16 0 11 5
18 10 15 6 -3 10 0 11 7 0 7 4 5 8 -6 7 -17 8 -17 23 -2z m1902 -25 c-13 -21
-9 -82 6 -97 10 -11 11 -17 3 -19 -7 -3 -9 -11 -6 -19 3 -8 0 -14 -6 -14 -10
0 -15 38 -14 95 0 11 -4 23 -10 27 -7 4 -6 17 3 38 11 26 15 29 22 16 5 -9 6
-21 2 -27z m111 31 c3 -5 1 -10 -4 -10 -6 0 -11 5 -11 10 0 6 2 10 4 10 3 0 8
-4 11 -10z m329 -6 c10 -25 -1 -29 -14 -5 -6 12 -7 21 -1 21 5 0 12 -7 15 -16z
m-1989 -4 c3 -5 1 -10 -4 -10 -6 0 -11 5 -11 10 0 6 2 10 4 10 3 0 8 -4 11
-10z m1629 -11 c-3 -6 4 -7 20 -3 16 4 26 2 26 -5 0 -6 -4 -11 -10 -11 -5 0
-10 -4 -10 -10 0 -5 7 -10 16 -10 14 0 14 -3 4 -15 -18 -21 -29 -19 -40 10 -5
14 -14 25 -19 25 -5 0 -7 9 -4 20 3 11 9 17 14 14 5 -3 7 -10 3 -15z m746 6
c0 -8 -7 -15 -16 -15 -8 0 -13 -3 -11 -7 2 -5 -7 -19 -20 -33 l-25 -25 7 24
c8 26 44 71 57 71 4 0 8 -7 8 -15z m297 0 c0 -8 -4 -12 -9 -9 -4 3 -8 9 -8 15
0 5 4 9 8 9 5 0 9 -7 9 -15z m83 4 c0 -5 5 -7 10 -4 6 3 10 -1 10 -10 0 -11 5
-15 15 -11 8 3 15 0 15 -5 0 -6 -9 -9 -20 -6 -11 3 -20 0 -20 -6 -1 -16 -30
24 -30 40 0 7 5 13 10 13 6 0 10 -5 10 -11z m125 -12 c6 -5 0 -6 -12 -2 -15 4
-25 0 -32 -12 -6 -10 -11 -13 -11 -6 0 16 31 46 39 36 3 -4 11 -11 16 -16z
m410 -15 c-3 -4 -10 0 -15 8 -6 9 -5 17 3 22 13 8 24 -19 12 -30z m-3465 18
c0 -5 -4 -10 -10 -10 -5 0 -10 5 -10 10 0 6 5 10 10 10 6 0 10 -4 10 -10z m46
-9 c0 -16 -3 -17 -14 -9 -12 10 -7 19 13 28 1 0 1 -9 1 -19z m2094 -1 c0 -5
-2 -10 -4 -10 -3 0 -8 5 -11 10 -3 6 -1 10 4 10 6 0 11 -4 11 -10z m330 6 c0
-3 -4 -8 -10 -11 -5 -3 -10 -1 -10 4 0 6 5 11 10 11 6 0 10 -2 10 -4z m1033
-21 c-3 -9 -8 -14 -10 -11 -3 3 -2 9 2 15 9 16 15 13 8 -4z m-3286 -17 c-3 -8
-6 -5 -6 6 -1 11 2 17 5 13 3 -3 4 -12 1 -19z m33 12 c0 -5 -2 -10 -4 -10 -3
0 -8 5 -11 10 -3 6 -1 10 4 10 6 0 11 -4 11 -10z m1546 -15 c-3 -8 -1 -15 4
-15 6 0 10 -4 10 -10 0 -5 -4 -10 -9 -10 -12 0 -23 29 -15 41 9 15 17 10 10
-6z m416 3 c-9 -9 -15 -9 -24 0 -9 9 -7 12 12 12 19 0 21 -3 12 -12z m-2112
-2 c0 -3 -4 -8 -10 -11 -5 -3 -10 -1 -10 4 0 6 5 11 10 11 6 0 10 -2 10 -4z
m2875 -6 c3 -5 1 -10 -4 -10 -6 0 -11 5 -11 10 0 6 2 10 4 10 3 0 8 -4 11 -10z
m-3182 -21 c3 -12 10 -18 15 -15 5 3 15 0 21 -8 9 -11 8 -15 -5 -20 -27 -10
-44 -7 -44 9 0 8 -5 15 -11 15 -5 0 -7 5 -3 11 3 6 0 15 -7 20 -11 7 -9 9 7 9
14 0 24 -8 27 -21z m447 7 c0 -3 -4 -8 -10 -11 -5 -3 -10 -1 -10 4 0 6 5 11
10 11 6 0 10 -2 10 -4z m2810 0 c0 -3 -4 -8 -10 -11 -5 -3 -10 -1 -10 4 0 6 5
11 10 11 6 0 10 -2 10 -4z m326 -53 c8 -3 22 1 31 8 12 10 15 10 9 2 -4 -8 -2
-13 6 -14 9 0 9 -2 2 -5 -7 -3 -10 -14 -7 -24 3 -11 1 -20 -5 -20 -5 0 -12 -7
-16 -15 -4 -13 -2 -13 14 -5 29 15 35 12 16 -9 -11 -12 -14 -21 -7 -26 16 -9
13 -25 -4 -25 -9 0 -12 6 -9 15 4 10 0 15 -14 15 -15 0 -22 -8 -24 -26 l-3
-25 -22 20 c-12 12 -25 21 -28 21 -12 0 -35 -29 -35 -44 0 -9 -4 -16 -10 -16
-16 0 -12 37 5 44 8 3 15 15 15 26 0 12 -4 18 -10 15 -6 -3 -10 4 -9 17 0 13
3 17 6 11 2 -7 11 -13 19 -13 8 0 14 -6 14 -12 0 -8 3 -9 8 -3 4 6 19 16 35
24 29 15 37 51 12 51 -8 0 -15 4 -15 10 0 5 -7 7 -16 3 -9 -3 -20 0 -24 7 -10
16 10 39 27 33 7 -3 14 1 14 8 1 8 4 1 6 -14 3 -16 11 -31 19 -34z m-2446 -9
c0 -17 -4 -22 -15 -18 -9 4 -15 19 -15 36 0 26 2 29 15 18 8 -7 15 -23 15 -36z
m2210 36 c0 -5 -5 -10 -11 -10 -5 0 -7 5 -4 10 3 6 8 10 11 10 2 0 4 -4 4 -10z
m-2500 -34 c0 -17 -7 -25 -25 -28 -22 -5 -25 -2 -25 23 0 18 6 29 18 32 25 5
32 -1 32 -27z m990 8 c0 -8 -9 -14 -20 -14 -22 0 -26 10 -8 28 13 13 28 7 28
-14z m180 16 c-20 -13 -33 -13 -25 0 3 6 14 10 23 10 15 0 15 -2 2 -10z m86
-11 c1 -5 2 -12 3 -16 0 -4 8 2 17 13 14 17 15 17 10 1 -3 -10 -6 -23 -6 -28
0 -5 -9 -4 -19 3 -11 6 -19 20 -18 29 1 18 11 16 13 -2z m304 17 c0 -3 -4 -8
-10 -11 -5 -3 -10 -1 -10 4 0 6 5 11 10 11 6 0 10 -2 10 -4z m-1000 -36 c0
-23 -5 -30 -19 -30 -11 0 -23 5 -26 10 -11 18 6 50 26 50 14 0 19 -7 19 -30z
m1417 -2 c-3 -7 -5 -2 -5 12 0 14 2 19 5 13 2 -7 2 -19 0 -25z m-2873 8 c-3
-8 -14 -11 -32 -7 l-27 5 30 7 c17 4 31 7 32 8 1 0 0 -5 -3 -13z m514 -14 c4
-23 -21 -31 -33 -12 -3 6 -2 10 4 10 6 0 8 7 4 16 -4 12 -2 15 8 12 8 -2 15
-14 17 -26z m41 -36 c-1 -43 -4 -37 -23 38 -6 26 -5 28 8 17 10 -9 16 -29 15
-55z m-454 44 c-3 -5 -12 -10 -18 -10 -7 0 -6 4 3 10 19 12 23 12 15 0z m705
-12 c0 -19 -2 -20 -10 -8 -13 19 -13 30 0 30 6 0 10 -10 10 -22z m890 -2 c0
-29 -26 -42 -33 -16 -5 18 9 40 25 40 4 0 8 -11 8 -24z m1160 8 c0 -8 -5 -12
-10 -9 -6 4 -8 11 -5 16 9 14 15 11 15 -7z m-1483 -16 c-3 -8 -6 -5 -6 6 -1
11 2 17 5 13 3 -3 4 -12 1 -19z m-1527 8 c0 -3 -4 -8 -10 -11 -5 -3 -10 -1
-10 4 0 6 5 11 10 11 6 0 10 -2 10 -4z m175 -27 c-6 -19 18 -48 41 -50 27 -3
32 -4 40 -11 11 -11 -25 -10 -69 3 -21 5 -35 14 -33 18 3 5 -6 7 -19 5 -14 -1
-25 2 -25 7 0 5 5 9 10 9 6 0 10 8 10 18 0 11 8 17 25 17 18 0 23 -4 20 -16z
m2055 11 c0 -5 -5 -10 -11 -10 -5 0 -7 5 -4 10 3 6 8 10 11 10 2 0 4 -4 4 -10z
m-1910 -11 c0 8 2 12 5 9 3 -3 2 -13 -1 -22 -5 -14 -9 -15 -15 -4 -5 7 -9 18
-9 23 0 6 5 3 10 -5 8 -12 10 -12 10 -1z m2720 -4 c0 -8 -6 -15 -14 -15 -8 0
-16 7 -20 15 -4 10 1 15 14 15 11 0 20 -7 20 -15z m-2510 -21 c0 -8 5 -14 10
-14 6 0 10 -5 10 -11 0 -24 -33 -2 -36 24 -1 15 2 25 7 22 5 -4 9 -13 9 -21z
m805 16 c3 -5 2 -10 -4 -10 -5 0 -13 5 -16 10 -3 6 -2 10 4 10 5 0 13 -4 16
-10z m2585 -15 c-7 -9 -15 -13 -17 -11 -7 7 7 26 19 26 6 0 6 -6 -2 -15z
m-2890 -5 c0 -5 -4 -10 -10 -10 -5 0 -10 5 -10 10 0 6 5 10 10 10 6 0 10 -4
10 -10z m1733 -9 c3 -14 1 -18 -9 -14 -15 6 -18 16 -7 26 9 10 10 9 16 -12z
m-1153 5 c0 -2 -7 -6 -15 -10 -8 -3 -15 -1 -15 4 0 6 7 10 15 10 8 0 15 -2 15
-4z m2260 -11 c0 -8 4 -15 10 -15 13 0 2 -27 -14 -33 -9 -4 -13 6 -14 29 -1
19 3 34 8 34 6 0 10 -7 10 -15z m-3180 -5 c0 -5 -2 -10 -4 -10 -3 0 -8 5 -11
10 -3 6 -1 10 4 10 6 0 11 -4 11 -10z m2048 -3 c8 -10 6 -13 -9 -14 -19 -2
-25 8 -12 20 8 9 9 9 21 -6z m1197 3 c3 -5 1 -10 -4 -10 -6 0 -11 5 -11 10 0
6 2 10 4 10 3 0 8 -4 11 -10z m-3755 -42 c0 -5 -9 -8 -20 -8 -23 0 -25 6 -7
24 12 13 26 4 27 -16z m168 -6 c2 -19 -1 -32 -8 -32 -6 0 -9 -4 -6 -9 7 -11
-14 -20 -31 -13 -7 2 -13 11 -13 19 0 8 4 12 9 9 5 -4 7 3 4 14 -3 11 -10 17
-17 14 -6 -3 0 4 14 15 32 26 44 22 48 -17z m3320 31 c-3 -5 -11 -23 -18 -40
-8 -18 -20 -33 -28 -33 -9 0 -7 8 7 26 12 15 21 33 21 40 0 8 5 14 11 14 6 0
9 -3 7 -7z m-3067 -46 c-13 -13 -15 1 -4 30 7 17 8 17 11 -1 2 -10 -1 -23 -7
-29z m2994 -12 c-4 -48 -5 -51 -15 -35 -5 8 -7 22 -5 31 3 9 -1 22 -10 29 -23
19 -18 29 9 17 19 -9 23 -18 21 -42z m-3455 3 c0 -4 -13 0 -29 10 -16 9 -27
20 -25 24 6 9 53 -22 54 -34z m3816 7 c1 -14 -2 -25 -7 -25 -6 0 -8 4 -5 9 4
5 1 11 -5 13 -5 2 -7 11 -3 21 8 22 16 15 20 -18z m-3256 21 c0 -3 -4 -8 -10
-11 -5 -3 -10 -1 -10 4 0 6 5 11 10 11 6 0 10 -2 10 -4z m1393 -21 c-3 -9 -8
-14 -10 -11 -3 3 -2 9 2 15 9 16 15 13 8 -4z m-1541 -23 c-8 -2 -8 -11 0 -27
9 -19 15 -22 29 -15 25 14 29 12 22 -7 -5 -12 -2 -15 10 -10 16 6 41 -15 30
-26 -13 -14 -53 -7 -53 9 0 12 -6 15 -21 11 -13 -3 -22 0 -26 10 -4 11 -8 12
-13 2 -10 -15 -34 6 -44 39 -4 13 -12 19 -18 16 -7 -5 -8 -2 -3 5 5 9 10 10
18 2 13 -13 40 -15 33 -2 -9 14 17 20 33 8 8 -7 9 -13 3 -15z m3311 8 c-3 -11
0 -20 6 -20 6 0 11 6 11 14 0 8 5 18 12 22 8 5 9 0 6 -14 -4 -13 -1 -22 5 -22
7 0 3 -6 -7 -12 -14 -8 -24 -8 -36 0 -19 11 -34 5 -43 -18 -3 -9 -6 -4 -6 12
-1 20 6 31 27 41 15 8 28 15 29 16 0 1 -1 -8 -4 -19z m-3130 -15 c10 -15 13
-26 7 -30 -6 -4 -8 -9 -6 -13 2 -4 -8 -8 -22 -8 -15 -1 -21 1 -14 3 17 7 15
33 -3 33 -13 0 -13 3 -3 20 16 25 19 25 41 -5z m-543 11 c0 -2 -7 -7 -16 -10
-8 -3 -12 -2 -9 4 6 10 25 14 25 6z m3210 -6 c0 -5 -8 -10 -17 -10 -15 0 -16
2 -3 10 19 12 20 12 20 0z m-3280 -20 c-7 -5 -8 -9 -2 -11 5 -2 12 -20 16 -39
6 -33 5 -34 -6 -10 -7 14 -15 27 -18 30 -10 8 -19 38 -13 43 3 3 12 3 20 0 11
-4 12 -8 3 -13z m3560 10 c0 -5 -8 -10 -17 -10 -15 0 -16 2 -3 10 19 12 20 12
20 0z m60 0 c0 -5 -2 -10 -4 -10 -3 0 -8 5 -11 10 -3 6 -1 10 4 10 6 0 11 -4
11 -10z m-3282 -25 c-7 -17 -14 -21 -19 -14 -4 6 -12 9 -18 5 -7 -4 -9 -1 -5
8 3 8 15 17 27 19 12 2 23 5 24 6 2 0 -3 -10 -9 -24z m-303 5 c3 -5 1 -10 -4
-10 -6 0 -11 5 -11 10 0 6 2 10 4 10 3 0 8 -4 11 -10z m3413 -15 c-3 -3 -9 2
-12 12 -6 14 -5 15 5 6 7 -7 10 -15 7 -18z m62 10 c0 -8 -2 -15 -4 -15 -2 0
-6 7 -10 15 -3 8 -1 15 4 15 6 0 10 -7 10 -15z m-3380 -16 c0 -5 -4 -9 -10 -9
-5 0 -10 7 -10 16 0 8 5 12 10 9 6 -3 10 -10 10 -16z m77 -1 c-3 -8 -6 -5 -6
6 -1 11 2 17 5 13 3 -3 4 -12 1 -19z m47 13 c3 -5 -1 -11 -9 -15 -9 -3 -15 0
-15 9 0 16 16 20 24 6z m2636 -1 c0 -5 -2 -10 -4 -10 -3 0 -8 5 -11 10 -3 6
-1 10 4 10 6 0 11 -4 11 -10z m660 6 c0 -2 -7 -6 -15 -10 -8 -3 -15 -1 -15 4
0 6 7 10 15 10 8 0 15 -2 15 -4z m-225 -16 c13 -6 15 -9 5 -9 -8 0 -22 4 -30
9 -18 12 -2 12 25 0z m245 -9 c-5 -11 -15 -23 -22 -27 -7 -5 -8 -3 -2 7 5 8 9
17 10 22 3 15 4 17 14 17 7 0 7 -6 0 -19z m-730 -1 c0 -5 -5 -10 -11 -10 -5 0
-7 5 -4 10 3 6 8 10 11 10 2 0 4 -4 4 -10z m-2530 -10 c0 -5 -4 -10 -10 -10
-5 0 -10 5 -10 10 0 6 5 10 10 10 6 0 10 -4 10 -10z m300 -25 c-8 -10 -9 -15
-1 -15 6 0 11 -7 11 -15 0 -8 7 -15 15 -15 8 0 15 -4 15 -9 0 -15 -29 -33 -41
-26 -8 5 -9 1 -4 -14 5 -16 3 -20 -9 -15 -17 6 -20 22 -10 48 3 9 11 13 18 9
6 -3 2 3 -8 15 -18 21 -18 23 -1 42 21 23 35 19 15 -5z m2853 10 c-3 -9 -8
-14 -10 -11 -3 3 -2 9 2 15 9 16 15 13 8 -4z m-763 -16 c0 -11 -4 -17 -10 -14
-5 3 -10 13 -10 21 0 8 5 14 10 14 6 0 10 -9 10 -21z m-1452 -16 c3 -19 -1
-23 -22 -23 -21 0 -26 5 -26 26 0 21 4 25 23 22 14 -2 23 -11 25 -25z m1410
-5 c20 -32 20 -48 0 -48 -5 0 -8 7 -4 15 3 8 2 15 -3 15 -5 0 -11 11 -13 25
-7 32 -4 32 20 -7z m-1944 0 c8 -32 7 -40 -3 -34 -11 7 -21 56 -11 56 4 0 10
-10 14 -22z m1666 1 c0 -11 -4 -17 -10 -14 -5 3 -10 13 -10 21 0 8 5 14 10 14
6 0 10 -9 10 -21z m-2023 -12 c4 -6 0 -8 -10 -4 -18 7 -18 -8 0 -53 7 -16 7
-29 1 -37 -5 -7 -7 -17 -3 -22 3 -7 0 -8 -9 -5 -20 8 -20 21 0 32 14 8 14 10
0 24 -8 9 -18 27 -22 42 -5 22 -9 24 -26 15 -15 -8 -17 -14 -9 -22 6 -6 11
-15 11 -21 0 -6 -5 -5 -11 1 -12 12 -39 6 -51 -11 -5 -7 -8 -4 -8 7 0 10 6 20
14 23 8 3 16 15 19 26 3 11 10 17 16 13 6 -3 11 -2 11 2 0 12 69 3 77 -10z
m113 9 c0 -8 -7 -16 -15 -20 -12 -4 -13 -2 -2 14 14 24 17 25 17 6z m480 -22
c0 -13 -4 -24 -9 -24 -5 0 -16 -3 -25 -6 -12 -5 -16 1 -16 24 0 21 6 32 18 35
25 5 32 -1 32 -29z m-913 20 c-3 -3 -12 -4 -19 -1 -8 3 -5 6 6 6 11 1 17 -2
13 -5z m1463 -13 c0 -17 -18 -31 -41 -31 -10 0 -12 33 -2 43 14 15 43 7 43
-12z m286 -27 c-3 -8 -15 -14 -26 -14 -30 0 -28 47 3 52 23 3 33 -13 23 -38z
m789 -4 c7 -22 6 -23 -8 -12 -9 8 -21 11 -27 7 -19 -12 -24 27 -5 42 21 15 26
10 40 -37z m-2675 30 c0 -5 -2 -10 -4 -10 -3 0 -8 5 -11 10 -3 6 -1 10 4 10 6
0 11 -4 11 -10z m527 -6 c-3 -4 0 -13 8 -21 8 -8 15 -26 14 -41 -1 -27 -1 -27
-15 6 -18 40 -28 42 -20 2 6 -33 -4 -38 -29 -14 -12 13 -13 19 -4 24 6 4 8 13
5 19 -4 6 3 15 16 20 28 12 33 13 25 5z m430 -26 c-3 -7 -5 -2 -5 12 0 14 2
19 5 13 2 -7 2 -19 0 -25z m1583 10 c0 -24 -17 -23 -30 1 -8 17 -7 20 10 18
12 -1 20 -8 20 -19z m-1023 -20 c-3 -7 -5 -2 -5 12 0 14 2 19 5 13 2 -7 2 -19
0 -25z m1048 12 c3 -5 1 -10 -4 -10 -6 0 -11 5 -11 10 0 6 2 10 4 10 3 0 8 -4
11 -10z m-2375 -14 c0 -8 -4 -18 -10 -21 -5 -3 -10 3 -10 14 0 12 5 21 10 21
6 0 10 -6 10 -14z m224 -37 c-21 -24 -28 -18 -20 16 6 22 9 25 22 14 13 -10
12 -14 -2 -30z m-137 18 c13 5 13 3 2 -15 -15 -24 -22 -21 -25 11 -2 12 0 17
2 10 3 -7 12 -9 21 -6z m2620 -9 c-3 -8 -6 -5 -6 6 -1 11 2 17 5 13 3 -3 4
-12 1 -19z m93 2 c0 -5 -2 -10 -4 -10 -3 0 -8 5 -11 10 -3 6 -1 10 4 10 6 0
11 -4 11 -10z m-2242 -16 c-10 -10 -21 -13 -29 -8 -12 7 0 14 41 23 2 1 -3 -6
-12 -15z m55 2 c13 -10 16 -21 11 -40 -5 -22 -10 -25 -45 -22 -21 2 -36 -1
-33 -5 3 -5 -2 -9 -10 -9 -23 0 -20 17 4 25 11 4 18 11 15 16 -3 5 1 6 10 3 8
-4 22 -1 30 6 13 11 13 14 -2 26 -10 7 -13 13 -8 13 6 0 18 -6 28 -13z m240 7
c-7 -2 -19 -2 -25 0 -7 3 -2 5 12 5 14 0 19 -2 13 -5z m830 0 c-7 -2 -19 -2
-25 0 -7 3 -2 5 12 5 14 0 19 -2 13 -5z m-1633 -17 c0 -3 -4 -8 -10 -11 -5 -3
-10 -1 -10 4 0 6 5 11 10 11 6 0 10 -2 10 -4z m30 -26 c0 -5 -10 -10 -22 -10
-19 0 -20 2 -8 10 19 13 30 13 30 0z m400 0 c0 -5 -7 -10 -16 -10 -8 0 -12 5
-9 10 3 6 10 10 16 10 5 0 9 -4 9 -10z m-176 -15 c3 -8 2 -15 -3 -15 -5 0 -14
7 -21 15 -10 12 -10 15 3 15 8 0 17 -7 21 -15z m2511 -33 c-4 -4 -13 2 -21 12
-21 30 -17 39 7 15 11 -11 18 -24 14 -27z m-2661 22 c5 -14 4 -15 -9 -4 -17
14 -19 20 -6 20 5 0 12 -7 15 -16z m220 7 c3 -5 0 -11 -8 -14 -8 -3 -17 1 -20
9 -6 15 19 20 28 5z m-299 -11 c3 -6 -1 -7 -9 -4 -18 7 -21 14 -7 14 6 0 13
-4 16 -10z m2675 -16 c0 -22 -16 -17 -17 6 -1 11 2 18 8 15 5 -4 9 -13 9 -21z
m-2540 -9 c10 -12 10 -15 -3 -15 -8 0 -17 7 -21 15 -3 8 -2 15 3 15 5 0 14 -7
21 -15z m264 0 c-4 -8 -8 -15 -10 -15 -2 0 -4 7 -4 15 0 8 4 15 10 15 5 0 7
-7 4 -15z m1566 -15 c0 -5 -5 -10 -11 -10 -5 0 -7 5 -4 10 3 6 8 10 11 10 2 0
4 -4 4 -10z m-1715 -10 c-3 -5 -12 -7 -20 -3 -21 7 -19 13 6 13 11 0 18 -4 14
-10z m175 -21 c0 -6 -4 -7 -10 -4 -5 3 -10 11 -10 16 0 6 5 7 10 4 6 -3 10
-11 10 -16z m-135 -7 c-3 -3 -11 0 -18 7 -9 10 -8 11 6 5 10 -3 15 -9 12 -12z
m50 8 c8 -13 -5 -13 -25 0 -13 8 -13 10 2 10 9 0 20 -4 23 -10z m125 0 c0 -5
-5 -10 -11 -10 -5 0 -7 5 -4 10 3 6 8 10 11 10 2 0 4 -4 4 -10z m2950 6 c0 -3
-4 -8 -10 -11 -5 -3 -10 -1 -10 4 0 6 5 11 10 11 6 0 10 -2 10 -4z"/>
<path d="M702 3590 c0 -14 2 -19 5 -12 2 6 2 18 0 25 -3 6 -5 1 -5 -13z"/>
<path d="M631 3084 c0 -11 3 -14 6 -6 3 7 2 16 -1 19 -3 4 -6 -2 -5 -13z"/>
<path d="M671 2894 c0 -11 3 -14 6 -6 3 7 2 16 -1 19 -3 4 -6 -2 -5 -13z"/>
<path d="M803 2543 c0 -49 11 -73 21 -48 3 9 10 13 16 10 5 -3 10 -1 10 4 0 6
-7 11 -15 11 -8 0 -15 5 -15 11 0 5 5 7 10 4 6 -3 10 4 9 17 0 13 -3 17 -6 11
-7 -18 -21 -16 -26 5 -3 9 -4 -2 -4 -25z"/>
<path d="M729 2353 c2 -30 7 -41 13 -35 10 10 2 68 -10 76 -4 2 -5 -16 -3 -41z"/>
<path d="M761 2304 c0 -11 3 -14 6 -6 3 7 2 16 -1 19 -3 4 -6 -2 -5 -13z"/>
<path d="M146 1025 c4 -8 8 -15 10 -15 2 0 4 7 4 15 0 8 -4 15 -10 15 -5 0 -7
-7 -4 -15z"/>
<path d="M220 1030 c0 -5 7 -10 16 -10 8 0 12 5 9 10 -3 6 -10 10 -16 10 -5 0
-9 -4 -9 -10z"/>
<path d="M3185 831 c-3 -5 -1 -12 5 -16 5 -3 10 1 10 9 0 18 -6 21 -15 7z"/>
<path d="M3465 830 c3 -5 8 -10 11 -10 2 0 4 5 4 10 0 6 -5 10 -11 10 -5 0 -7
-4 -4 -10z"/>
<path d="M3210 814 c1 -13 29 -48 34 -43 2 2 -4 15 -15 28 -10 13 -19 19 -19
15z"/>
<path d="M2680 750 c-8 -5 -11 -10 -6 -10 5 0 4 -6 -2 -12 -5 -7 -6 -22 -2
-33 6 -17 8 -16 14 13 4 18 14 32 22 32 8 0 14 5 14 10 0 13 -20 13 -40 0z"/>
<path d="M2986 585 c4 -8 8 -15 10 -15 2 0 4 7 4 15 0 8 -4 15 -10 15 -5 0 -7
-7 -4 -15z"/>
<path d="M365 770 c3 -5 10 -10 16 -10 5 0 9 5 9 10 0 6 -7 10 -16 10 -8 0
-12 -4 -9 -10z"/>
<path d="M170 510 c0 -5 5 -10 11 -10 5 0 7 5 4 10 -3 6 -8 10 -11 10 -2 0 -4
-4 -4 -10z"/>
<path d="M353 436 c-10 -11 -9 -15 2 -20 10 -4 15 1 15 14 0 23 -1 24 -17 6z"/>
<path d="M990 3602 c0 -10 22 -32 32 -32 5 0 3 9 -4 20 -13 20 -28 27 -28 12z"/>
<path d="M1475 3220 c-7 -11 2 -30 13 -30 4 0 8 9 8 20 0 21 -11 26 -21 10z"/>
<path d="M1510 3166 c0 -8 4 -17 9 -20 5 -4 7 3 4 14 -6 23 -13 26 -13 6z"/>
<path d="M1230 3150 c0 -5 5 -10 10 -10 6 0 10 5 10 10 0 6 -4 10 -10 10 -5 0
-10 -4 -10 -10z"/>
<path d="M3360 3141 c0 -5 5 -13 10 -16 6 -3 10 -2 10 4 0 5 -4 13 -10 16 -5
3 -10 2 -10 -4z"/>
<path d="M3945 3130 c-3 -5 -1 -10 4 -10 6 0 11 5 11 10 0 6 -2 10 -4 10 -3 0
-8 -4 -11 -10z"/>
<path d="M1540 3116 c0 -9 5 -16 10 -16 6 0 10 4 10 9 0 6 -4 13 -10 16 -5 3
-10 -1 -10 -9z"/>
<path d="M3480 3106 c0 -20 -5 -26 -23 -26 -13 0 -28 5 -35 12 -9 9 -12 7 -12
-9 0 -12 -4 -25 -10 -28 -6 -4 -10 5 -10 19 0 14 -4 26 -10 26 -16 0 -12 -46
5 -60 9 -7 22 -9 32 -5 33 15 48 17 95 19 26 1 50 4 53 8 9 9 -4 48 -15 48 -5
0 -7 -7 -4 -15 7 -18 -12 -20 -23 -2 -4 6 -16 18 -25 26 -16 12 -18 11 -18
-13z"/>
<path d="M3840 3113 c0 -9 6 -13 15 -9 8 3 15 1 15 -4 0 -5 -9 -12 -21 -15
-25 -8 -18 -17 16 -21 16 -2 25 2 25 11 0 7 7 21 16 29 8 9 12 16 7 17 -4 0
-23 2 -40 3 -24 3 -33 0 -33 -11z"/>
<path d="M1534 3058 c3 -7 9 -21 12 -30 7 -21 20 -23 26 -5 7 17 -2 38 -13 31
-5 -3 -9 0 -9 5 0 6 -5 11 -11 11 -6 0 -8 -6 -5 -12z"/>
<path d="M3934 3025 c-4 -9 1 -24 10 -34 9 -10 14 -25 11 -34 -4 -10 1 -17 14
-22 30 -9 26 -23 -9 -32 -40 -11 -38 -27 4 -31 33 -3 34 -2 34 37 0 22 -4 43
-9 46 -5 4 -7 11 -4 16 4 5 -1 9 -9 9 -18 0 -21 11 -6 26 6 6 3 14 -10 22 -17
10 -21 10 -26 -3z"/>
<path d="M2984 3015 c-17 -13 -17 -14 -2 -15 9 0 20 5 23 11 11 17 0 20 -21 4z"/>
<path d="M3510 3018 c0 -15 -31 -37 -52 -38 -9 0 -21 6 -25 14 -4 8 -21 18
-37 22 -40 10 -31 -15 14 -38 18 -9 37 -21 43 -27 5 -5 15 -7 22 -5 7 3 16 1
19 -5 8 -12 36 -4 52 15 5 7 28 15 50 18 63 10 99 22 94 31 -5 10 -14 11 -112
19 -45 3 -68 1 -68 -6z"/>
<path d="M3280 3003 c0 -5 7 -18 15 -29 15 -18 15 -18 13 5 -3 23 -28 44 -28
24z"/>
<path d="M1560 2990 c-8 -5 -12 -12 -9 -15 8 -8 39 5 39 16 0 11 -11 11 -30
-1z"/>
<path d="M1607 2993 c-4 -3 -7 -11 -7 -17 0 -6 5 -5 12 2 6 6 9 14 7 17 -3 3
-9 2 -12 -2z"/>
<path d="M3246 2965 c-24 -25 -20 -43 9 -37 26 4 31 17 16 40 -6 11 -11 10
-25 -3z"/>
<path d="M3865 2970 c-11 -19 5 -30 25 -18 14 9 16 14 7 20 -16 10 -25 10 -32
-2z"/>
<path d="M2925 2960 c3 -5 -1 -10 -7 -13 -9 -3 -10 -8 -3 -14 7 -7 16 -4 27 8
15 16 15 17 -3 22 -10 3 -17 1 -14 -3z"/>
<path d="M3375 2960 c3 -5 14 -10 23 -10 15 0 15 2 2 10 -20 13 -33 13 -25 0z"/>
<path d="M2841 2936 c-1 -12 -6 -16 -16 -12 -19 7 -19 -1 0 -20 13 -14 16 -14
21 0 3 8 4 23 1 33 -4 17 -5 17 -6 -1z"/>
<path d="M3634 2918 c-13 -38 -13 -52 -2 -65 14 -17 28 -16 28 2 0 10 11 16
33 17 17 1 41 2 51 2 11 1 21 7 24 14 3 10 7 8 17 -4 17 -24 113 -21 130 3 14
19 10 39 -10 47 -9 3 -12 0 -9 -8 3 -8 -4 -16 -18 -20 -40 -10 -68 -7 -68 9 0
13 -11 14 -69 9 -46 -5 -70 -3 -75 5 -11 17 -24 13 -32 -11z m36 -28 c12 -8
11 -10 -7 -10 -13 0 -23 5 -23 10 0 13 11 13 30 0z"/>
<path d="M3196 2914 c-3 -9 -6 -16 -6 -17 0 -1 11 -2 25 -2 28 0 31 5 13 23
-16 16 -25 15 -32 -4z"/>
<path d="M3555 2920 c-8 -14 3 -30 21 -30 16 0 16 2 8 24 -7 18 -20 21 -29 6z"/>
<path d="M3290 2903 c0 -16 -2 -16 -11 -3 -9 12 -10 12 -7 1 7 -24 28 -25 28
-2 0 12 -2 21 -5 21 -3 0 -5 -8 -5 -17z"/>
<path d="M2875 2880 c-3 -5 1 -10 10 -10 9 0 13 5 10 10 -3 6 -8 10 -10 10 -2
0 -7 -4 -10 -10z"/>
<path d="M3470 2864 c0 -8 5 -12 10 -9 6 3 10 10 10 16 0 5 -4 9 -10 9 -5 0
-10 -7 -10 -16z"/>
<path d="M2745 2837 c-4 -10 -5 -21 -1 -24 10 -10 18 4 13 24 -4 17 -4 17 -12
0z"/>
<path d="M3215 2840 c-3 -5 -1 -10 4 -10 6 0 11 5 11 10 0 6 -2 10 -4 10 -3 0
-8 -4 -11 -10z"/>
<path d="M3387 2826 c-15 -14 -27 -33 -26 -43 0 -15 2 -14 11 5 6 12 17 22 23
22 12 0 29 29 22 37 -2 2 -16 -8 -30 -21z"/>
<path d="M3700 2840 c0 -5 9 -10 20 -10 11 0 20 5 20 10 0 6 -9 10 -20 10 -11
0 -20 -4 -20 -10z"/>
<path d="M3180 2810 c0 -5 5 -10 11 -10 5 0 7 5 4 10 -3 6 -8 10 -11 10 -2 0
-4 -4 -4 -10z"/>
<path d="M3941 2811 c-10 -6 -9 -12 4 -24 9 -9 14 -21 10 -26 -3 -5 -1 -12 4
-15 5 -3 11 10 13 29 4 35 -8 50 -31 36z"/>
<path d="M3330 2780 c0 -5 5 -10 10 -10 6 0 10 5 10 10 0 6 -4 10 -10 10 -5 0
-10 -4 -10 -10z"/>
<path d="M3520 2769 c0 -5 5 -7 10 -4 6 3 10 8 10 11 0 2 -4 4 -10 4 -5 0 -10
-5 -10 -11z"/>
<path d="M3505 2720 c3 -5 8 -10 11 -10 2 0 4 5 4 10 0 6 -5 10 -11 10 -5 0
-7 -4 -4 -10z"/>
<path d="M3330 2704 c0 -8 5 -12 10 -9 6 3 10 10 10 16 0 5 -4 9 -10 9 -5 0
-10 -7 -10 -16z"/>
<path d="M3462 2700 c-7 -11 -9 -20 -4 -20 4 0 13 9 20 20 7 11 9 20 4 20 -4
0 -13 -9 -20 -20z"/>
<path d="M3802 2690 c0 -19 2 -27 5 -17 2 9 2 25 0 35 -3 9 -5 1 -5 -18z"/>
<path d="M2070 2680 c0 -5 -7 -10 -15 -10 -8 0 -15 -7 -15 -15 0 -19 32 -85
41 -85 14 0 21 64 10 93 -11 27 -21 36 -21 17z"/>
<path d="M3986 2672 c-2 -4 -1 -14 5 -22 7 -12 9 -10 9 8 0 23 -5 28 -14 14z"/>
<path d="M2795 2650 c-3 -5 -1 -10 4 -10 6 0 11 5 11 10 0 6 -2 10 -4 10 -3 0
-8 -4 -11 -10z"/>
<path d="M2826 2651 c-4 -7 -5 -15 -2 -18 9 -9 19 4 14 18 -4 11 -6 11 -12 0z"/>
<path d="M3910 2611 c0 -6 5 -13 12 -17 7 -5 -6 -12 -32 -18 -30 -7 -46 -17
-48 -29 -3 -16 3 -18 44 -15 40 2 51 7 61 27 10 21 9 27 -9 43 -24 21 -28 22
-28 9z"/>
<path d="M2887 2551 c-3 -14 0 -21 9 -21 16 0 18 9 5 28 -6 10 -10 9 -14 -7z"/>
<path d="M3960 2545 c-10 -11 -10 -19 -2 -27 15 -15 44 -2 40 19 -4 23 -22 27
-38 8z"/>
<path d="M1428 2533 c7 -3 16 -2 19 1 4 3 -2 6 -13 5 -11 0 -14 -3 -6 -6z"/>
<path d="M2790 2520 c0 -5 5 -10 10 -10 6 0 10 5 10 10 0 6 -4 10 -10 10 -5 0
-10 -4 -10 -10z"/>
<path d="M2863 2499 c-18 -5 -32 -13 -32 -17 4 -22 -3 -32 -23 -33 l-23 0 23
-10 c17 -6 27 -5 38 6 22 21 22 19 10 -20 -6 -19 -14 -35 -18 -35 -5 0 -8 -5
-8 -11 0 -5 5 -7 11 -3 6 3 15 0 20 -7 6 -9 9 -10 9 -2 0 6 13 -2 29 -18 22
-22 35 -27 50 -21 26 9 26 28 -1 24 -16 -3 -19 0 -15 12 5 13 2 15 -21 10 -26
-7 -27 -7 -9 13 17 20 17 21 -10 28 l-28 7 28 14 c29 16 37 27 12 18 -9 -4
-15 0 -15 10 0 9 5 16 10 16 6 0 10 7 10 15 0 17 -2 17 -47 4z"/>
<path d="M2684 2488 c-5 -8 -2 -9 10 -5 10 4 15 3 11 -3 -3 -5 -21 -7 -39 -5
-29 4 -33 2 -29 -13 3 -14 12 -17 33 -14 33 5 55 26 45 42 -8 13 -22 13 -31
-2z"/>
<path d="M3085 2457 c-4 -10 -5 -21 -1 -24 10 -10 18 4 13 24 -4 17 -4 17 -12
0z"/>
<path d="M2538 2443 c7 -3 16 -2 19 1 4 3 -2 6 -13 5 -11 0 -14 -3 -6 -6z"/>
<path d="M3959 2443 c-39 -6 -28 -43 12 -43 24 0 29 4 29 25 0 14 -3 24 -7 24
-5 -1 -20 -4 -34 -6z"/>
<path d="M2597 2433 c-4 -3 -7 -11 -7 -17 0 -6 5 -5 12 2 6 6 9 14 7 17 -3 3
-9 2 -12 -2z"/>
<path d="M3817 2434 c-8 -8 1 -24 14 -24 5 0 9 7 9 15 0 15 -12 20 -23 9z"/>
<path d="M2730 2413 c0 -7 -6 -12 -12 -10 -16 3 -23 -42 -9 -56 16 -16 26 0
11 19 -12 13 -11 17 1 24 10 7 16 4 21 -8 5 -13 7 -13 7 -2 0 8 -4 22 -9 30
-6 10 -10 11 -10 3z"/>
<path d="M3083 2410 c-29 -12 -30 -30 -2 -30 31 0 65 -20 49 -30 -9 -5 -9 -9
-1 -14 18 -12 25 25 10 52 -17 30 -26 34 -56 22z"/>
<path d="M2481 2391 c-8 -6 -9 -11 -3 -15 6 -3 14 -1 17 5 9 14 2 20 -14 10z"/>
<path d="M1130 2360 c0 -5 5 -10 10 -10 6 0 10 5 10 10 0 6 -4 10 -10 10 -5 0
-10 -4 -10 -10z"/>
<path d="M3954 2358 c-3 -5 -16 -13 -28 -18 -21 -8 -21 -8 -1 -15 11 -3 28
-11 39 -16 11 -7 16 -7 12 -1 -3 6 1 12 9 16 8 3 15 12 15 20 0 16 -37 28 -46
14z"/>
<path d="M3069 2340 c0 -3 -2 -13 -4 -22 -2 -10 1 -18 5 -18 15 0 19 15 9 30
-5 8 -9 13 -10 10z"/>
<path d="M3840 2325 c0 -8 7 -15 15 -15 9 0 12 6 9 15 -4 8 -10 15 -15 15 -5
0 -9 -7 -9 -15z"/>
<path d="M2880 2320 c0 -5 5 -10 10 -10 6 0 10 5 10 10 0 6 -4 10 -10 10 -5 0
-10 -4 -10 -10z"/>
<path d="M3754 2319 c-7 -12 15 -31 28 -23 9 6 -1 34 -12 34 -5 0 -12 -5 -16
-11z"/>
<path d="M3653 2296 c-33 -16 -28 -21 17 -21 42 0 47 4 28 23 -14 14 -15 14
-45 -2z"/>
<path d="M2990 2280 c-8 -5 -11 -12 -7 -16 4 -4 13 -2 19 4 15 15 7 24 -12 12z"/>
<path d="M3275 2280 c-3 -6 1 -7 9 -4 18 7 21 14 7 14 -6 0 -13 -4 -16 -10z"/>
<path d="M3435 2280 c3 -5 10 -10 16 -10 5 0 9 5 9 10 0 6 -7 10 -16 10 -8 0
-12 -4 -9 -10z"/>
<path d="M3569 2278 c-8 -29 -3 -48 12 -48 12 0 16 6 12 20 -5 18 -21 37 -24
28z"/>
<path d="M2906 2261 c-4 -5 -2 -12 3 -15 5 -4 12 -2 15 3 4 5 2 12 -3 15 -5 4
-12 2 -15 -3z"/>
<path d="M2950 2259 c0 -5 5 -7 10 -4 6 3 10 8 10 11 0 2 -4 4 -10 4 -5 0 -10
-5 -10 -11z"/>
<path d="M2580 2250 c0 -5 5 -10 11 -10 5 0 7 5 4 10 -3 6 -8 10 -11 10 -2 0
-4 -4 -4 -10z"/>
<path d="M3113 2248 c0 -7 -4 -21 -8 -30 -5 -14 -2 -18 13 -18 23 0 37 15 23
25 -6 3 -8 12 -4 20 3 9 -1 15 -9 15 -8 0 -15 -6 -15 -12z"/>
<path d="M2725 2231 c3 -5 1 -12 -5 -16 -5 -3 -10 -25 -9 -48 l1 -42 8 33 c4
19 13 39 19 45 16 16 13 37 -5 37 -8 0 -13 -4 -9 -9z"/>
<path d="M3174 2175 c-10 -8 -14 -14 -9 -15 15 0 40 18 34 24 -3 3 -14 -1 -25
-9z"/>
<path d="M3662 2170 c9 -14 14 -16 20 -7 13 20 9 27 -12 27 -18 0 -19 -3 -8
-20z"/>
<path d="M2676 2157 c3 -8 1 -18 -5 -22 -6 -3 -11 1 -11 9 0 9 -4 16 -10 16
-5 0 -10 -7 -10 -15 0 -8 -4 -15 -10 -15 -5 0 -10 -11 -10 -24 0 -13 -5 -26
-11 -28 -12 -4 -1 -38 12 -38 5 0 13 9 17 21 7 19 9 19 21 5 9 -11 10 -16 2
-16 -6 0 -11 -8 -10 -17 0 -11 3 -13 6 -5 2 6 13 12 24 12 10 0 19 7 19 15 0
8 -7 15 -15 15 -20 0 -19 17 1 28 16 9 11 56 -7 68 -5 3 -6 -1 -3 -9z"/>
<path d="M3792 2159 c2 -6 8 -10 13 -10 5 0 11 4 13 10 2 6 -4 11 -13 11 -9 0
-15 -5 -13 -11z"/>
<path d="M2975 2150 c-19 -8 -19 -9 3 -9 12 -1 22 4 22 9 0 6 -1 10 -2 9 -2 0
-12 -4 -23 -9z"/>
<path d="M3726 2120 c4 -27 3 -40 -5 -40 -6 0 -11 7 -11 15 0 20 -50 13 -86
-12 -16 -11 -39 -24 -51 -27 -13 -4 -23 -14 -23 -22 0 -18 10 -18 35 0 11 7
34 17 52 20 17 4 34 14 37 22 4 12 10 13 26 4 29 -16 74 8 78 40 2 14 -1 20
-5 15 -13 -17 -38 -11 -35 8 2 9 -2 17 -8 17 -6 0 -8 -15 -4 -40z"/>
<path d="M3111 2134 c-12 -14 -11 -16 4 -12 10 1 20 9 23 16 5 17 -10 15 -27
-4z"/>
<path d="M3325 2139 c-4 -6 -5 -12 -2 -15 2 -3 7 2 10 11 7 17 1 20 -8 4z"/>
<path d="M1025 2130 c-8 -13 5 -13 25 0 13 8 13 10 -2 10 -9 0 -20 -4 -23 -10z"/>
<path d="M3037 2121 c3 -12 9 -21 14 -21 14 0 11 16 -5 29 -12 10 -13 8 -9 -8z"/>
<path d="M3210 2130 c0 -5 5 -10 11 -10 5 0 7 5 4 10 -3 6 -8 10 -11 10 -2 0
-4 -4 -4 -10z"/>
<path d="M2933 2116 c-32 -15 -40 -40 -11 -32 13 3 28 6 35 6 7 0 17 9 23 20
9 17 8 20 -7 19 -10 -1 -28 -6 -40 -13z"/>
<path d="M3843 2116 c-4 -8 -15 -16 -23 -19 -8 -2 -2 -3 14 -1 21 3 27 0 23
-10 -8 -20 18 -27 39 -11 18 13 18 14 0 34 -22 24 -42 27 -53 7z"/>
<path d="M3330 2080 c0 -5 7 -10 15 -10 8 0 15 5 15 10 0 6 -7 10 -15 10 -8 0
-15 -4 -15 -10z"/>
<path d="M3937 2081 c-16 -6 -17 -9 -5 -18 19 -16 68 -27 68 -16 0 10 -33 44
-41 42 -2 0 -12 -4 -22 -8z"/>
<path d="M3163 2065 c-3 -9 -3 -18 0 -21 8 -8 57 7 52 17 -3 4 -13 5 -22 2
-11 -4 -14 -3 -9 5 4 7 2 12 -4 12 -6 0 -13 -7 -17 -15z"/>
<path d="M3806 2064 c-3 -8 -14 -14 -23 -13 -31 3 -43 -1 -43 -12 0 -6 10 -10
23 -9 42 4 67 0 67 -10 0 -5 -10 -9 -21 -7 -12 1 -24 -3 -26 -9 -5 -15 51 -23
73 -11 11 6 21 4 33 -8 15 -15 15 -17 -4 -31 -10 -8 -24 -13 -30 -11 -5 2 -18
-6 -28 -17 -18 -20 -19 -20 -31 -3 -7 9 -23 17 -35 17 -11 0 -21 5 -21 12 0 6
-9 2 -20 -10 -32 -34 -78 -23 -68 16 5 18 3 19 -13 9 -23 -14 -32 -38 -23 -61
7 -17 44 -23 44 -6 0 15 29 12 46 -5 9 -8 24 -15 35 -15 11 0 22 7 25 15 9 23
28 18 41 -11 10 -22 10 -25 -4 -20 -10 4 -27 -7 -50 -34 -28 -32 -40 -39 -57
-34 -11 4 -24 12 -28 18 -8 12 -8 12 -12 -20 -2 -20 1 -21 47 -17 41 3 52 1
68 -18 16 -18 21 -20 34 -9 15 12 15 14 0 23 -14 8 -14 11 5 27 12 10 21 22
20 27 -1 4 6 9 14 11 11 2 14 -2 10 -12 -5 -12 -2 -15 10 -10 20 8 20 14 1 41
-13 19 -12 23 18 55 38 41 67 58 96 58 12 0 21 5 21 10 0 6 -7 10 -15 10 -14
0 -19 11 -16 38 2 15 -1 15 -34 0 -19 -9 -28 -9 -33 -1 -4 6 -23 13 -42 16
-25 3 -35 9 -34 20 2 21 -12 22 -20 1z"/>
<path d="M3024 2045 c-18 -14 -18 -14 4 -8 12 3 22 9 22 14 0 12 -3 11 -26 -6z"/>
<path d="M2880 2035 c0 -8 5 -15 11 -15 5 0 7 -4 4 -10 -3 -5 -4 -10 -1 -10 2
0 13 -3 23 -6 15 -5 16 -4 3 5 -13 9 -13 12 -1 20 11 7 10 11 -7 20 -27 15
-32 14 -32 -4z"/>
<path d="M2740 2030 c0 -5 5 -10 10 -10 6 0 10 5 10 10 0 6 -4 10 -10 10 -5 0
-10 -4 -10 -10z"/>
<path d="M3462 2032 c-12 -8 -7 -42 7 -42 10 0 30 37 24 44 -8 8 -15 7 -31 -2z"/>
<path d="M3670 2011 c0 -15 5 -18 23 -14 18 5 20 3 10 -8 -15 -15 -17 -29 -4
-29 5 0 11 9 14 20 3 13 -3 24 -19 35 -22 14 -24 14 -24 -4z"/>
<path d="M3288 2013 c7 -3 16 -2 19 1 4 3 -2 6 -13 5 -11 0 -14 -3 -6 -6z"/>
<path d="M3423 2007 c3 -10 2 -17 -3 -17 -6 0 -10 -4 -10 -10 0 -5 7 -7 15 -4
18 7 20 30 3 40 -8 5 -9 2 -5 -9z"/>
<path d="M2695 1983 c-30 -21 -36 -28 -22 -31 9 -2 31 10 48 27 38 38 27 40
-26 4z"/>
<path d="M2777 1979 c-5 -20 0 -24 19 -11 9 5 8 10 -1 19 -10 9 -14 8 -18 -8z"/>
<path d="M2820 1990 c0 -5 5 -10 10 -10 6 0 10 5 10 10 0 6 -4 10 -10 10 -5 0
-10 -4 -10 -10z"/>
<path d="M2855 1990 c-3 -5 1 -10 10 -10 9 0 13 5 10 10 -3 6 -8 10 -10 10 -2
0 -7 -4 -10 -10z"/>
<path d="M2990 1981 c0 -6 4 -13 10 -16 6 -3 7 1 4 9 -7 18 -14 21 -14 7z"/>
<path d="M120 1976 c0 -2 7 -7 16 -10 8 -3 12 -2 9 4 -6 10 -25 14 -25 6z"/>
<path d="M3071 1961 c-10 -17 -9 -21 3 -21 20 0 27 13 16 29 -6 11 -10 9 -19
-8z"/>
<path d="M3556 1972 c-3 -5 -27 -8 -53 -7 -27 2 -42 1 -35 -2 6 -2 12 -11 12
-18 0 -15 22 -25 56 -25 15 0 24 6 24 15 0 9 9 15 21 15 12 0 19 5 17 13 -6
15 -34 21 -42 9z"/>
<path d="M270 1960 c-9 -6 -10 -10 -3 -10 6 0 15 5 18 10 8 12 4 12 -15 0z"/>
<path d="M3280 1960 c0 -5 7 -7 15 -4 8 4 15 8 15 10 0 2 -7 4 -15 4 -8 0 -15
-4 -15 -10z"/>
<path d="M3340 1960 l25 -8 -29 -1 c-21 -1 -27 -5 -22 -16 3 -8 0 -15 -6 -15
-6 0 -9 -3 -6 -6 7 -6 49 16 60 31 14 18 8 25 -19 24 l-28 -1 25 -8z"/>
<path d="M308 1943 c7 -3 16 -2 19 1 4 3 -2 6 -13 5 -11 0 -14 -3 -6 -6z"/>
<path d="M2630 1941 c0 -5 7 -11 15 -15 8 -3 15 -1 15 3 0 5 -7 11 -15 15 -8
3 -15 1 -15 -3z"/>
<path d="M224 1929 c-9 -15 1 -21 26 -17 21 3 21 3 1 15 -14 9 -22 9 -27 2z"/>
<path d="M2792 1913 c0 -29 22 -73 37 -73 14 0 20 37 7 50 -8 8 -6 15 9 27 16
12 16 14 3 10 -10 -3 -20 -2 -23 3 -13 20 -33 9 -33 -17z"/>
<path d="M3945 1930 c-3 -5 -1 -10 4 -10 6 0 11 5 11 10 0 6 -2 10 -4 10 -3 0
-8 -4 -11 -10z"/>
<path d="M3976 1930 c7 -6 9 -20 7 -31 -5 -18 -7 -18 -18 -3 -10 14 -15 14
-34 4 -14 -7 -20 -17 -17 -27 3 -8 6 -19 6 -24 0 -5 7 -9 15 -9 21 0 19 28 -2
33 -14 4 -12 5 5 6 17 1 22 -4 22 -23 0 -19 5 -24 20 -23 19 1 21 7 18 51 -2
33 -8 51 -18 54 -11 3 -12 2 -4 -8z"/>
<path d="M3115 1910 c3 -5 16 -10 28 -9 21 0 21 1 2 9 -28 12 -37 12 -30 0z"/>
<path d="M2875 1900 c-3 -5 -2 -17 3 -26 8 -14 10 -14 15 5 5 22 -7 38 -18 21z"/>
<path d="M255 1890 c3 -5 16 -10 28 -10 18 0 19 2 7 10 -20 13 -43 13 -35 0z"/>
<path d="M3168 1873 c17 -7 15 -23 -2 -23 -16 0 -31 -18 -23 -27 3 -3 17 4 31
14 19 15 22 23 13 32 -6 6 -16 11 -21 10 -6 0 -5 -3 2 -6z"/>
<path d="M430 1855 c-24 -29 25 -63 70 -49 13 5 13 6 0 14 -8 5 -22 7 -32 4
-9 -2 -20 1 -24 7 -4 8 -3 9 4 5 14 -8 15 3 3 22 -6 10 -10 10 -21 -3z"/>
<path d="M150 1834 c-11 -12 -11 -15 1 -12 10 2 13 -5 12 -25 -2 -22 1 -28 13
-23 9 3 20 6 25 6 6 0 7 5 4 10 -3 6 1 10 9 10 9 0 16 5 16 11 0 7 -10 9 -26
5 -17 -5 -23 -3 -19 4 3 5 -1 10 -10 10 -9 0 -13 5 -10 10 10 16 -1 12 -15 -6z"/>
<path d="M3470 1831 c-14 -27 -13 -31 10 -31 21 0 29 20 8 20 -8 0 -5 7 6 15
17 13 17 15 3 15 -9 0 -21 -9 -27 -19z"/>
<path d="M3565 1840 c-3 -6 5 -14 19 -20 30 -11 36 -24 7 -15 -25 8 -33 -7
-25 -41 l7 -27 18 24 c10 13 19 18 19 12 0 -7 5 -13 10 -13 16 0 6 46 -14 69
-21 23 -32 26 -41 11z"/>
<path d="M10 1820 c0 -5 5 -10 11 -10 5 0 7 5 4 10 -3 6 -8 10 -11 10 -2 0 -4
-4 -4 -10z"/>
<path d="M634 1819 c-3 -6 -17 -9 -31 -6 -18 3 -22 2 -13 -7 13 -13 81 -16 73
-4 -2 5 8 6 24 3 l28 -7 -29 16 c-33 19 -43 20 -52 5z"/>
<path d="M3103 1822 c-15 -2 -23 -10 -23 -24 0 -17 2 -18 15 -8 12 10 15 10
16 -1 0 -8 5 -3 10 10 11 28 11 28 -18 23z"/>
<path d="M100 1810 c0 -5 10 -10 23 -10 18 0 19 2 7 10 -19 13 -30 13 -30 0z"/>
<path d="M3897 1813 c-12 -12 -7 -25 7 -20 10 4 13 1 9 -9 -3 -10 2 -14 18
-15 13 0 34 -2 47 -5 12 -2 22 1 22 6 0 6 -9 10 -19 10 -22 0 -40 20 -19 21
17 1 -22 17 -43 18 -9 1 -19 -2 -22 -6z"/>
<path d="M530 1791 c0 -6 12 -13 28 -16 15 -4 46 -15 70 -26 45 -20 79 -26 52
-9 -13 8 -12 10 3 10 10 0 16 4 13 9 -4 5 0 12 6 15 7 3 4 4 -7 1 -21 -5 -117
8 -147 20 -11 4 -18 3 -18 -4z"/>
<path d="M3478 1783 c6 -2 18 -2 25 0 6 3 1 5 -13 5 -14 0 -19 -2 -12 -5z"/>
<path d="M130 1760 c26 -20 40 -25 40 -14 0 11 -34 33 -50 33 -10 1 -6 -6 10
-19z"/>
<path d="M3270 1761 c0 -5 5 -13 10 -16 6 -3 10 -2 10 4 0 5 -4 13 -10 16 -5
3 -10 2 -10 -4z"/>
<path d="M714 1742 c3 -5 0 -13 -6 -15 -8 -3 -6 -6 5 -6 19 -1 23 14 5 25 -6
4 -8 3 -4 -4z"/>
<path d="M3135 1740 c-3 -6 -4 -24 0 -40 5 -21 11 -27 23 -24 15 5 15 4 -1 -9
-17 -14 -16 -15 14 -26 40 -14 55 -3 61 44 4 32 2 34 -32 40 -19 4 -40 11 -47
16 -7 7 -14 6 -18 -1z"/>
<path d="M3815 1739 c-11 -17 1 -21 15 -4 8 9 8 15 2 15 -6 0 -14 -5 -17 -11z"/>
<path d="M3986 1733 c-6 -14 -5 -15 5 -6 7 7 10 15 7 18 -3 3 -9 -2 -12 -12z"/>
<path d="M0 1730 c0 -5 7 -10 15 -10 8 0 15 5 15 10 0 6 -7 10 -15 10 -8 0
-15 -4 -15 -10z"/>
<path d="M615 1720 c3 -13 0 -29 -6 -37 -8 -9 -8 -13 -1 -13 6 0 17 -3 25 -6
26 -10 27 33 1 57 l-23 22 4 -23z"/>
<path d="M3291 1714 c0 -11 3 -14 6 -6 3 7 2 16 -1 19 -3 4 -6 -2 -5 -13z"/>
<path d="M3080 1690 c0 -16 -4 -30 -10 -30 -5 0 -10 7 -10 15 0 8 -5 15 -10
15 -7 0 -6 -9 2 -22 12 -22 14 -28 17 -55 0 -7 7 -13 14 -13 7 0 13 17 15 42
1 23 8 46 15 50 9 6 8 10 -3 18 -24 16 -30 12 -30 -20z"/>
<path d="M426 1687 c3 -10 9 -15 12 -12 3 3 0 11 -7 18 -10 9 -11 8 -5 -6z"/>
<path d="M1926 1685 c-3 -9 0 -15 9 -15 9 0 12 6 9 15 -4 8 -7 15 -9 15 -2 0
-5 -7 -9 -15z"/>
<path d="M775 1670 c-3 -5 -1 -10 4 -10 6 0 11 5 11 10 0 6 -2 10 -4 10 -3 0
-8 -4 -11 -10z"/>
<path d="M3430 1644 c0 -8 5 -12 10 -9 6 3 10 10 10 16 0 5 -4 9 -10 9 -5 0
-10 -7 -10 -16z"/>
<path d="M3615 1649 c-11 -17 1 -21 15 -4 8 9 8 15 2 15 -6 0 -14 -5 -17 -11z"/>
<path d="M460 1629 c0 -5 5 -7 10 -4 6 3 10 8 10 11 0 2 -4 4 -10 4 -5 0 -10
-5 -10 -11z"/>
<path d="M400 1620 c0 -5 4 -10 8 -10 5 0 18 -9 31 -21 12 -12 25 -18 28 -15
3 3 12 1 19 -5 7 -6 14 -6 18 -1 3 6 -11 17 -32 26 -20 10 -45 21 -54 27 -12
6 -18 6 -18 -1z"/>
<path d="M3120 1620 c0 -5 5 -10 10 -10 6 0 10 5 10 10 0 6 -4 10 -10 10 -5 0
-10 -4 -10 -10z"/>
<path d="M3822 1600 c-1 -14 -5 -36 -8 -50 -5 -19 -4 -22 5 -14 7 7 11 28 8
50 -2 22 -4 28 -5 14z"/>
<path d="M3956 1583 c-6 -14 -5 -15 5 -6 7 7 10 15 7 18 -3 3 -9 -2 -12 -12z"/>
<path d="M3872 1564 c-14 -15 -16 -80 -4 -88 8 -5 24 20 35 54 3 9 0 23 -7 32
-9 13 -13 13 -24 2z"/>
<path d="M606 1424 c-4 -9 -4 -19 -1 -22 2 -3 7 3 11 12 4 9 4 19 1 22 -2 3
-7 -3 -11 -12z"/>
<path d="M434 1419 c-11 -18 13 -34 31 -19 8 7 15 16 15 21 0 13 -38 11 -46
-2z"/>
<path d="M500 1290 c0 -5 5 -10 11 -10 5 0 7 5 4 10 -3 6 -8 10 -11 10 -2 0
-4 -4 -4 -10z"/>
<path d="M3970 1079 c0 -5 -4 -7 -10 -4 -5 3 -10 2 -10 -3 0 -6 7 -13 16 -16
8 -3 12 -2 9 4 -3 6 -1 10 4 10 6 0 11 5 11 10 0 6 -4 10 -10 10 -5 0 -10 -5
-10 -11z"/>
<path d="M3928 1033 c7 -3 16 -2 19 1 4 3 -2 6 -13 5 -11 0 -14 -3 -6 -6z"/>
<path d="M3900 997 c0 -14 5 -29 10 -32 7 -4 9 3 6 20 -7 37 -16 44 -16 12z"/>
<path d="M3930 1005 c0 -9 9 -15 21 -15 18 0 19 2 9 15 -7 8 -16 15 -21 15 -5
0 -9 -7 -9 -15z"/>
<path d="M3910 900 c0 -5 5 -10 10 -10 6 0 10 5 10 10 0 6 -4 10 -10 10 -5 0
-10 -4 -10 -10z"/>
<path d="M2301 724 c0 -11 3 -14 6 -6 3 7 2 16 -1 19 -3 4 -6 -2 -5 -13z"/>
<path d="M3566 673 c-6 -14 -5 -15 5 -6 7 7 10 15 7 18 -3 3 -9 -2 -12 -12z"/>
<path d="M2376 661 c-10 -15 12 -59 35 -72 19 -10 21 -9 16 5 -3 8 -2 18 4 21
14 9 1 25 -22 25 -11 0 -18 4 -14 9 3 5 1 12 -4 15 -5 4 -12 2 -15 -3z"/>
<path d="M2565 530 c3 -5 11 -10 16 -10 6 0 7 5 4 10 -3 6 -11 10 -16 10 -6 0
-7 -4 -4 -10z"/>
<path d="M2790 376 c0 -2 8 -10 18 -17 15 -13 16 -12 3 4 -13 16 -21 21 -21
13z"/>
<path d="M2970 246 c0 -9 5 -16 10 -16 6 0 10 4 10 9 0 6 -4 13 -10 16 -5 3
-10 -1 -10 -9z"/>
<path d="M3240 61 c0 -5 -8 -7 -19 -4 -14 4 -18 0 -17 -19 1 -21 32 -45 44
-33 3 3 0 5 -6 5 -7 0 -12 7 -12 15 0 18 20 20 20 3 0 -7 5 -5 11 5 11 18 5
37 -12 37 -5 0 -9 -4 -9 -9z"/>
<path d="M3273 20 c-1 -15 4 -20 24 -20 25 0 26 0 8 20 -10 11 -21 20 -24 20
-4 0 -7 -9 -8 -20z"/>
<path d="M3118 3 c7 -3 16 -2 19 1 4 3 -2 6 -13 5 -11 0 -14 -3 -6 -6z"/>
</g>
</svg>
